<svg width="254" height="192" viewBox="0 0 254 192" fill="none" xmlns="http://www.w3.org/2000/svg">
<path d="M188.128 27.7912C188.128 27.7912 164.996 2.53786 128.373 3.74585C91.7504 4.95385 60.5113 29.4229 34.6845 48.5676C8.85783 67.7123 1.93431 97.4484 16.9477 120.664C31.9611 143.879 55.886 134.106 86.3437 149.175C116.801 164.243 122.587 172.802 156.515 169.138C190.444 165.474 216.27 127.997 212.421 88.0764C208.571 48.1554 188.128 27.7912 188.128 27.7912Z" fill="#443FBD"/>
<path opacity="0.7" d="M188.128 27.7912C188.128 27.7912 164.996 2.53786 128.373 3.74585C91.7504 4.95385 60.5113 29.4229 34.6845 48.5676C8.85783 67.7123 1.93431 97.4484 16.9477 120.664C31.9611 143.879 55.886 134.106 86.3437 149.175C116.801 164.243 122.587 172.802 156.515 169.138C190.444 165.474 216.27 127.997 212.421 88.0764C208.571 48.1554 188.128 27.7912 188.128 27.7912Z" fill="white"/>
<path d="M131.378 183.748C194.373 183.748 245.441 180.972 245.441 177.548C245.441 174.124 194.373 171.348 131.378 171.348C68.3831 171.348 17.3154 174.124 17.3154 177.548C17.3154 180.972 68.3831 183.748 131.378 183.748Z" fill="#443FBD"/>
<path opacity="0.3" d="M131.378 183.748C194.373 183.748 245.441 180.972 245.441 177.548C245.441 174.124 194.373 171.348 131.378 171.348C68.3831 171.348 17.3154 174.124 17.3154 177.548C17.3154 180.972 68.3831 183.748 131.378 183.748Z" fill="white"/>
<path d="M198.786 84.0918C198.752 84.0918 199.183 81.9563 199.229 81.8018C199.723 80.2789 201.584 77.6225 203.383 77.6282C203.682 77.6367 203.976 77.7078 204.245 77.8369C204.515 77.9661 204.754 78.1503 204.948 78.3776C205.141 78.6049 205.284 78.8703 205.368 79.1565C205.452 79.4426 205.474 79.7431 205.434 80.0384C205.302 81.3037 204.164 82.3743 203.136 82.9983C201.929 83.7483 198.786 84.0918 198.786 84.0918Z" fill="#443FBD"/>
<path d="M195.299 69.7161C196.994 70.323 197.838 73.4489 197.781 75.0519C197.781 75.1893 197.459 77.3419 197.43 77.3419H197.396C197.528 77.8343 197.672 78.3667 197.815 78.9449C198.068 80.0213 198.344 81.235 198.557 82.5861C198.803 84.0354 198.964 85.4978 199.039 86.9658C199.131 88.6087 199.075 90.2564 198.873 91.8894C198.869 91.9083 198.869 91.9277 198.873 91.9466C199.097 91.4714 199.757 90.1547 199.821 90.0573C200.705 88.7177 203.199 86.6223 204.94 87.1261C205.225 87.2137 205.489 87.3601 205.714 87.5558C205.939 87.7514 206.12 87.992 206.246 88.2619C206.371 88.5317 206.439 88.8249 206.443 89.1224C206.448 89.4198 206.39 89.715 206.273 89.9886C205.813 91.168 204.434 91.9065 203.279 92.2329C201.975 92.605 199.068 92.1642 198.838 92.1298C198.593 93.7855 198.236 95.4228 197.769 97.0305C197.501 97.9694 197.21 98.9083 196.896 99.8472C197.097 99.4408 197.287 99.0801 197.315 99.0286C198.2 97.6889 200.694 95.5935 202.435 96.0916C202.721 96.1785 202.985 96.3244 203.21 96.5199C203.436 96.7154 203.617 96.956 203.743 97.2262C203.869 97.4963 203.936 97.7898 203.94 98.0875C203.945 98.3853 203.886 98.6806 203.768 98.9541C203.308 100.139 201.929 100.872 200.774 101.204C199.619 101.536 197.114 101.204 196.459 101.118C196.339 101.473 196.218 101.834 196.092 102.189C195.517 103.906 194.897 105.624 194.368 107.307C194.178 107.88 194.012 108.498 193.845 109.093C194.029 108.733 194.184 108.429 194.213 108.389C195.092 107.049 197.591 104.954 199.326 105.452C199.612 105.54 199.875 105.686 200.1 105.882C200.326 106.077 200.507 106.318 200.633 106.587C200.759 106.857 200.827 107.15 200.833 107.448C200.838 107.745 200.781 108.041 200.665 108.315C200.206 109.494 198.821 110.233 197.666 110.559C196.511 110.885 194.253 110.599 193.472 110.49C193.316 111.108 193.167 111.721 193.046 112.322C192.972 112.734 192.874 113.129 192.822 113.547C192.771 113.965 192.707 114.372 192.65 114.773C192.57 115.557 192.478 116.37 192.42 117.137C192.374 117.669 192.34 118.179 192.305 118.689C192.483 118.116 192.88 116.937 192.909 116.839C193.547 115.581 194.496 114.505 195.666 113.713C195.73 113.57 195.809 113.434 195.902 113.307C196.065 113.057 196.279 112.844 196.529 112.682C196.78 112.52 197.062 112.412 197.358 112.366C197.653 112.319 197.955 112.335 198.243 112.412C198.532 112.49 198.801 112.627 199.033 112.815C200.401 113.96 200.056 117.211 199.43 118.689C199.395 118.774 198.884 119.673 198.557 120.234C198.804 119.937 199.033 119.662 199.292 119.33C199.792 118.723 200.309 118.127 200.861 117.486L201.705 116.576C201.981 116.261 202.314 115.969 202.619 115.666C203.337 114.973 204.101 114.303 204.888 113.645C204.348 113.21 202.469 111.624 201.929 110.547C201.389 109.471 201.004 107.965 201.567 106.832C201.69 106.56 201.87 106.316 202.094 106.118C202.318 105.919 202.581 105.77 202.867 105.68C203.153 105.589 203.454 105.56 203.752 105.594C204.05 105.628 204.337 105.724 204.595 105.876C206.118 106.826 206.273 110.061 205.876 111.601C205.876 111.698 205.44 112.78 205.204 113.37C205.681 112.981 206.152 112.586 206.646 112.225C208.071 111.126 209.548 110.061 211.013 108.99L212.352 108C212.162 107.845 209.887 106.013 209.278 104.811C208.744 103.74 208.353 102.229 208.916 101.09C209.04 100.818 209.22 100.575 209.444 100.377C209.668 100.179 209.931 100.03 210.216 99.94C210.502 99.8499 210.803 99.8205 211.101 99.8539C211.398 99.8872 211.686 99.9825 211.944 100.134C213.466 101.09 213.622 104.324 213.225 105.859C213.196 105.979 212.605 107.536 212.432 107.925C213.415 107.193 214.386 106.46 215.305 105.698C216.564 104.674 217.754 103.569 218.867 102.389C218.781 102.32 216.397 100.42 215.776 99.1831C215.236 98.1125 214.851 96.6011 215.414 95.4676C215.537 95.1954 215.716 94.9521 215.939 94.7536C216.162 94.5551 216.425 94.4058 216.711 94.3156C216.996 94.2253 217.297 94.1961 217.595 94.2299C217.892 94.2636 218.179 94.3596 218.436 94.5115C219.965 95.4618 220.12 98.6965 219.724 100.237C219.695 100.334 219.247 101.525 219.017 102.086L219.109 102.137C220.199 100.921 221.177 99.6107 222.033 98.2213C222.51 97.4656 222.93 96.7156 223.32 95.9714C222.838 95.6622 220.66 94.2538 219.976 93.1775C219.293 92.1012 218.775 90.7157 219.206 89.5249C219.299 89.2447 219.45 88.9868 219.648 88.7677C219.847 88.5486 220.089 88.3732 220.359 88.2525C220.629 88.1319 220.922 88.0687 221.218 88.0669C221.514 88.0652 221.808 88.125 222.079 88.2425C223.705 89.0211 224.211 92.2214 223.987 93.8073C223.987 93.8932 223.757 94.7576 223.59 95.3874C223.757 95.0496 223.941 94.7061 224.096 94.3798C224.671 93.1546 225.159 91.9981 225.561 90.9447C225.791 90.3722 225.981 89.7997 226.136 89.3245C225.82 88.752 224.59 86.5479 224.469 85.317C224.349 84.0861 224.544 82.5746 225.481 81.7159C225.694 81.5071 225.95 81.3455 226.23 81.2415C226.511 81.1376 226.81 81.0936 227.108 81.1125C227.407 81.1314 227.698 81.2127 227.963 81.3512C228.228 81.4897 228.461 81.6822 228.647 81.9163C229.727 83.3533 228.698 86.4219 227.767 87.733C227.687 87.8417 226.222 89.4505 226.205 89.4505V89.4161C226.044 89.9028 225.871 90.4238 225.665 90.9848C225.285 92.0211 224.837 93.1947 224.274 94.4199C223.674 95.7629 222.997 97.0704 222.246 98.3358C221.409 99.7538 220.448 101.095 219.373 102.343L219.333 102.389C219.781 102.109 221.057 101.382 221.166 101.336C222.648 100.706 225.877 100.345 227.061 101.702C227.25 101.932 227.389 102.2 227.469 102.487C227.548 102.774 227.566 103.075 227.522 103.369C227.478 103.664 227.372 103.946 227.211 104.197C227.05 104.449 226.839 104.663 226.59 104.828C225.55 105.561 223.987 105.401 222.843 105.051C221.551 104.645 219.396 102.681 219.195 102.527C218.075 103.772 216.871 104.941 215.592 106.025C214.845 106.666 214.081 107.284 213.294 107.891C213.691 107.668 214.047 107.467 214.099 107.444C215.575 106.815 218.804 106.454 219.988 107.811C220.178 108.041 220.318 108.308 220.398 108.595C220.478 108.883 220.496 109.184 220.452 109.479C220.408 109.773 220.301 110.056 220.14 110.307C219.979 110.558 219.767 110.773 219.517 110.937C218.482 111.67 216.92 111.509 215.776 111.16C214.633 110.811 212.72 109.162 212.225 108.721L211.323 109.414C209.875 110.519 208.451 111.612 207.043 112.729C206.554 113.124 206.089 113.53 205.618 113.931C205.974 113.731 206.267 113.565 206.319 113.547C207.796 112.912 211.025 112.557 212.208 113.908C212.4 114.138 212.54 114.405 212.621 114.692C212.701 114.98 212.72 115.281 212.675 115.576C212.631 115.871 212.524 116.154 212.362 116.405C212.201 116.656 211.988 116.871 211.737 117.034C210.697 117.767 209.14 117.606 207.997 117.263C206.853 116.919 205.124 115.419 204.549 114.899C204.084 115.328 203.613 115.752 203.182 116.192C202.889 116.496 202.607 116.765 202.32 117.091C202.033 117.418 201.745 117.71 201.493 118.019C200.993 118.626 200.47 119.255 199.993 119.862C199.66 120.28 199.349 120.687 199.039 121.093C199.516 120.698 200.481 119.948 200.568 119.885C201.929 119.038 205.066 118.196 206.445 119.353C206.668 119.552 206.846 119.796 206.968 120.069C207.09 120.342 207.153 120.637 207.153 120.936C207.153 121.234 207.09 121.529 206.968 121.802C206.846 122.075 206.668 122.319 206.445 122.519C205.532 123.395 203.969 123.492 202.785 123.309C201.475 123.103 199.108 121.591 198.815 121.374C198.298 122.049 197.804 122.713 197.344 123.349C195.753 125.541 194.512 127.425 193.661 128.759L193.575 128.891L192.472 128.358C192.529 128.272 192.587 128.192 192.644 128.101C193.535 126.772 194.833 124.895 196.488 122.713C197.011 122.026 197.58 121.299 198.172 120.555C197.556 119.887 196.98 119.184 196.448 118.448C195.178 118.94 192.541 118.963 192.202 118.963C192.15 119.811 192.104 120.635 192.07 121.414C191.955 124.122 191.966 126.377 191.995 127.952V128.141L190.783 127.568C190.783 126.005 190.846 123.881 191.007 121.379C191.058 120.515 191.133 119.593 191.219 118.654C190.88 118.568 188.14 117.864 187.105 117.04C186.169 116.295 185.181 115.082 185.215 113.816C185.212 113.518 185.272 113.222 185.392 112.949C185.511 112.675 185.687 112.43 185.909 112.228C186.13 112.027 186.391 111.875 186.676 111.782C186.96 111.688 187.261 111.656 187.559 111.687C189.346 111.916 190.84 114.79 191.139 116.364C191.139 116.456 191.231 117.509 191.265 118.139C191.306 117.75 191.334 117.377 191.374 116.994C191.455 116.21 191.558 115.425 191.667 114.584C191.731 114.183 191.8 113.776 191.863 113.364C191.926 112.952 192.035 112.528 192.121 112.105C192.34 111.131 192.604 110.152 192.897 109.173C192.208 109.099 189.766 108.813 188.714 108.217C187.663 107.622 186.514 106.569 186.358 105.315C186.31 105.02 186.324 104.718 186.4 104.429C186.476 104.14 186.613 103.871 186.801 103.638C186.99 103.406 187.225 103.216 187.493 103.08C187.76 102.945 188.053 102.867 188.352 102.853C190.151 102.807 192.07 105.423 192.598 106.935C192.633 107.032 192.891 108.16 193.018 108.784C193.202 108.212 193.374 107.605 193.592 107.021C194.167 105.303 194.816 103.62 195.448 101.92C195.643 101.399 195.827 100.878 196.023 100.363C195.776 100.363 192.863 100.059 191.69 99.3892C190.65 98.8167 189.49 97.7404 189.329 96.4866C189.282 96.1921 189.297 95.8911 189.374 95.6029C189.452 95.3148 189.588 95.046 189.776 94.8139C189.964 94.5818 190.199 94.3917 190.465 94.2558C190.732 94.1198 191.024 94.0412 191.323 94.0248C193.127 93.979 195.046 96.5954 195.575 98.1068C195.615 98.2213 195.982 99.8244 196.057 100.265C196.471 99.1202 196.879 97.9751 197.206 96.8301C197.692 95.2843 198.076 93.7084 198.355 92.1127C198.241 92.1127 195.195 91.8264 194 91.1394C192.954 90.5669 191.794 89.4906 191.639 88.2368C191.592 87.9423 191.607 87.6412 191.684 87.3531C191.761 87.0649 191.898 86.7961 192.086 86.564C192.274 86.332 192.509 86.1418 192.775 86.0059C193.042 85.87 193.334 85.7913 193.632 85.775C195.431 85.7349 197.35 88.3455 197.879 89.857C197.913 89.96 198.195 91.1966 198.315 91.7863H198.419C198.656 90.1737 198.748 88.5432 198.694 86.9143C198.694 86.0154 198.608 85.1624 198.522 84.3265C197.947 84.3265 195.339 84.3265 194.19 83.8342C193.041 83.3418 191.817 82.4372 191.518 81.2064C191.438 80.918 191.421 80.6162 191.466 80.3205C191.512 80.0249 191.619 79.7422 191.782 79.4909C191.945 79.2396 192.159 79.0253 192.41 78.8622C192.662 78.699 192.945 78.5907 193.242 78.5442C195.029 78.3037 197.224 80.6911 197.919 82.1395C197.953 82.2197 198.252 83.0613 198.453 83.6739C198.413 83.3017 198.373 82.9124 198.321 82.5575C198.143 81.2121 197.89 79.9869 197.66 78.9106C197.522 78.298 197.39 77.7656 197.258 77.2331C196.683 76.9469 194.431 75.7675 193.655 74.8114C192.88 73.8553 192.202 72.487 192.506 71.2561C192.572 70.9627 192.699 70.6866 192.88 70.4459C193.061 70.2052 193.291 70.0054 193.555 69.8598C193.819 69.7143 194.111 69.6262 194.411 69.6014C194.712 69.5766 195.014 69.6157 195.299 69.7161Z" fill="#443FBD"/>
<path d="M227.865 97.3855C226.457 97.3282 223.642 95.8912 223.642 95.8855C223.642 95.8798 225.153 94.3283 225.262 94.2424C226.521 93.2405 229.543 92.0497 231.042 93.0401C231.287 93.2124 231.493 93.4339 231.646 93.6904C231.799 93.9468 231.896 94.2325 231.931 94.5288C231.967 94.8252 231.939 95.1256 231.85 95.4106C231.761 95.6956 231.613 95.9588 231.416 96.1832C230.612 97.145 229.066 97.4313 227.865 97.3855Z" fill="#443FBD"/>
<g opacity="0.5">
<path d="M198.786 84.0918C198.752 84.0918 199.183 81.9563 199.229 81.8018C199.723 80.2789 201.585 77.6225 203.383 77.6282C203.682 77.6367 203.976 77.7078 204.245 77.8369C204.515 77.9661 204.754 78.1503 204.948 78.3776C205.141 78.6049 205.285 78.8703 205.368 79.1565C205.452 79.4426 205.475 79.7431 205.434 80.0384C205.302 81.3037 204.164 82.3743 203.136 82.9983C201.929 83.7483 198.786 84.0918 198.786 84.0918Z" fill="white"/>
<path d="M195.299 69.7161C196.994 70.323 197.838 73.4489 197.781 75.0519C197.781 75.1893 197.459 77.3419 197.43 77.3419H197.396C197.528 77.8343 197.672 78.3667 197.815 78.9449C198.068 80.0213 198.344 81.235 198.557 82.5861C198.803 84.0354 198.964 85.4978 199.039 86.9658C199.131 88.6087 199.075 90.2564 198.873 91.8894C198.869 91.9083 198.869 91.9277 198.873 91.9466C199.097 91.4714 199.757 90.1547 199.821 90.0573C200.705 88.7177 203.199 86.6223 204.94 87.1261C205.225 87.2137 205.489 87.3601 205.714 87.5558C205.939 87.7514 206.12 87.992 206.246 88.2619C206.371 88.5317 206.439 88.8249 206.443 89.1224C206.448 89.4198 206.39 89.715 206.273 89.9886C205.813 91.168 204.434 91.9065 203.279 92.2329C201.975 92.605 199.068 92.1642 198.838 92.1298C198.593 93.7855 198.236 95.4228 197.769 97.0305C197.501 97.9694 197.21 98.9083 196.896 99.8472C197.097 99.4408 197.287 99.0801 197.315 99.0286C198.2 97.6889 200.694 95.5935 202.435 96.0916C202.721 96.1785 202.985 96.3244 203.21 96.5199C203.436 96.7154 203.617 96.956 203.743 97.2262C203.869 97.4963 203.936 97.7898 203.94 98.0875C203.945 98.3853 203.886 98.6806 203.768 98.9541C203.308 100.139 201.929 100.872 200.774 101.204C199.619 101.536 197.114 101.204 196.459 101.118C196.339 101.473 196.218 101.834 196.092 102.189C195.517 103.906 194.897 105.624 194.368 107.307C194.178 107.88 194.012 108.498 193.845 109.093C194.029 108.733 194.184 108.429 194.213 108.389C195.092 107.049 197.591 104.954 199.326 105.452C199.612 105.54 199.875 105.686 200.1 105.882C200.326 106.077 200.507 106.318 200.633 106.587C200.759 106.857 200.827 107.15 200.833 107.448C200.838 107.745 200.781 108.041 200.665 108.315C200.206 109.494 198.821 110.233 197.666 110.559C196.511 110.885 194.253 110.599 193.472 110.49C193.316 111.108 193.167 111.721 193.046 112.322C192.972 112.734 192.874 113.129 192.822 113.547C192.771 113.965 192.707 114.372 192.65 114.773C192.57 115.557 192.478 116.37 192.42 117.137C192.374 117.669 192.34 118.179 192.305 118.689C192.483 118.116 192.88 116.937 192.909 116.839C193.547 115.581 194.496 114.505 195.666 113.713C195.73 113.57 195.809 113.434 195.902 113.307C196.065 113.057 196.279 112.844 196.529 112.682C196.78 112.52 197.062 112.412 197.358 112.366C197.653 112.319 197.955 112.335 198.243 112.412C198.532 112.49 198.801 112.627 199.033 112.815C200.401 113.96 200.056 117.211 199.43 118.689C199.395 118.774 198.884 119.673 198.557 120.234C198.804 119.937 199.033 119.662 199.292 119.33C199.792 118.723 200.309 118.127 200.861 117.486L201.705 116.576C201.981 116.261 202.314 115.969 202.619 115.666C203.337 114.973 204.101 114.303 204.888 113.645C204.348 113.21 202.469 111.624 201.929 110.547C201.389 109.471 201.004 107.965 201.567 106.832C201.69 106.56 201.87 106.316 202.094 106.118C202.318 105.919 202.581 105.77 202.867 105.68C203.153 105.589 203.454 105.56 203.752 105.594C204.05 105.628 204.337 105.724 204.595 105.876C206.118 106.826 206.273 110.061 205.876 111.601C205.876 111.698 205.44 112.78 205.204 113.37C205.681 112.981 206.152 112.586 206.646 112.225C208.071 111.126 209.548 110.061 211.013 108.99L212.352 108C212.162 107.845 209.887 106.013 209.278 104.811C208.744 103.74 208.353 102.229 208.916 101.09C209.04 100.818 209.22 100.575 209.444 100.377C209.668 100.179 209.931 100.03 210.216 99.94C210.502 99.8499 210.803 99.8205 211.101 99.8539C211.398 99.8872 211.686 99.9825 211.944 100.134C213.466 101.09 213.622 104.324 213.225 105.859C213.196 105.979 212.605 107.536 212.432 107.925C213.415 107.193 214.386 106.46 215.305 105.698C216.564 104.674 217.754 103.569 218.867 102.389C218.781 102.32 216.397 100.42 215.776 99.1831C215.236 98.1125 214.851 96.6011 215.414 95.4676C215.537 95.1954 215.716 94.9521 215.939 94.7536C216.162 94.5551 216.425 94.4058 216.711 94.3156C216.996 94.2253 217.297 94.1961 217.595 94.2299C217.892 94.2636 218.179 94.3596 218.436 94.5115C219.965 95.4618 220.12 98.6965 219.724 100.237C219.695 100.334 219.247 101.525 219.017 102.086L219.109 102.137C220.199 100.921 221.177 99.6107 222.033 98.2213C222.51 97.4656 222.93 96.7156 223.32 95.9714C222.838 95.6622 220.66 94.2538 219.976 93.1775C219.293 92.1012 218.775 90.7157 219.206 89.5249C219.299 89.2447 219.45 88.9868 219.648 88.7677C219.847 88.5486 220.089 88.3732 220.359 88.2525C220.629 88.1319 220.922 88.0687 221.218 88.0669C221.514 88.0652 221.808 88.125 222.079 88.2425C223.705 89.0211 224.211 92.2214 223.987 93.8073C223.987 93.8932 223.757 94.7576 223.59 95.3874C223.757 95.0496 223.941 94.7061 224.096 94.3798C224.671 93.1546 225.159 91.9981 225.561 90.9447C225.791 90.3722 225.981 89.7997 226.136 89.3245C225.82 88.752 224.59 86.5479 224.469 85.317C224.349 84.0861 224.544 82.5746 225.481 81.7159C225.694 81.5071 225.95 81.3455 226.23 81.2415C226.511 81.1376 226.81 81.0936 227.108 81.1125C227.407 81.1314 227.698 81.2127 227.963 81.3512C228.228 81.4897 228.461 81.6822 228.647 81.9163C229.727 83.3533 228.698 86.4219 227.767 87.733C227.687 87.8417 226.222 89.4505 226.205 89.4505V89.4161C226.044 89.9028 225.871 90.4238 225.665 90.9848C225.285 92.0211 224.837 93.1947 224.274 94.4199C223.674 95.7629 222.997 97.0704 222.246 98.3358C221.409 99.7538 220.448 101.095 219.373 102.343L219.333 102.389C219.781 102.109 221.057 101.382 221.166 101.336C222.648 100.706 225.877 100.345 227.061 101.702C227.25 101.932 227.389 102.2 227.469 102.487C227.548 102.774 227.566 103.075 227.522 103.369C227.478 103.664 227.372 103.946 227.211 104.197C227.05 104.449 226.839 104.663 226.59 104.828C225.55 105.561 223.987 105.401 222.843 105.051C221.551 104.645 219.396 102.681 219.195 102.527C218.075 103.772 216.871 104.941 215.592 106.025C214.845 106.666 214.081 107.284 213.294 107.891C213.691 107.668 214.047 107.467 214.099 107.444C215.575 106.815 218.804 106.454 219.988 107.811C220.178 108.041 220.318 108.308 220.398 108.595C220.478 108.883 220.496 109.184 220.452 109.479C220.408 109.773 220.301 110.056 220.14 110.307C219.979 110.558 219.767 110.773 219.517 110.937C218.482 111.67 216.92 111.509 215.776 111.16C214.633 110.811 212.72 109.162 212.225 108.721L211.323 109.414C209.875 110.519 208.451 111.612 207.043 112.729C206.554 113.124 206.089 113.53 205.618 113.931C205.974 113.731 206.267 113.565 206.319 113.547C207.796 112.912 211.025 112.557 212.208 113.908C212.4 114.138 212.54 114.405 212.621 114.692C212.701 114.98 212.72 115.281 212.675 115.576C212.631 115.871 212.524 116.154 212.362 116.405C212.201 116.656 211.988 116.871 211.737 117.034C210.697 117.767 209.14 117.606 207.997 117.263C206.853 116.919 205.124 115.419 204.549 114.899C204.084 115.328 203.613 115.752 203.182 116.192C202.889 116.496 202.607 116.765 202.32 117.091C202.033 117.418 201.745 117.71 201.493 118.019C200.993 118.626 200.47 119.255 199.993 119.862C199.66 120.28 199.349 120.687 199.039 121.093C199.516 120.698 200.481 119.948 200.568 119.885C201.929 119.038 205.066 118.196 206.445 119.353C206.668 119.552 206.846 119.796 206.968 120.069C207.09 120.342 207.153 120.637 207.153 120.936C207.153 121.234 207.09 121.529 206.968 121.802C206.846 122.075 206.668 122.319 206.445 122.519C205.532 123.395 203.969 123.492 202.785 123.309C201.475 123.103 199.108 121.591 198.815 121.374C198.298 122.049 197.804 122.713 197.344 123.349C195.753 125.541 194.512 127.425 193.661 128.759L193.575 128.891L192.472 128.358C192.529 128.272 192.587 128.192 192.644 128.101C193.535 126.772 194.833 124.895 196.488 122.713C197.011 122.026 197.58 121.299 198.172 120.555C197.556 119.887 196.98 119.184 196.448 118.448C195.178 118.94 192.541 118.963 192.202 118.963C192.15 119.811 192.104 120.635 192.07 121.414C191.955 124.122 191.966 126.377 191.995 127.952V128.141L190.783 127.568C190.783 126.005 190.846 123.881 191.007 121.379C191.058 120.515 191.133 119.593 191.219 118.654C190.88 118.568 188.14 117.864 187.105 117.04C186.169 116.295 185.181 115.082 185.215 113.816C185.212 113.518 185.272 113.222 185.392 112.949C185.511 112.675 185.687 112.43 185.909 112.228C186.13 112.027 186.391 111.875 186.676 111.782C186.96 111.688 187.261 111.656 187.559 111.687C189.346 111.916 190.84 114.79 191.139 116.364C191.139 116.456 191.231 117.509 191.265 118.139C191.306 117.75 191.334 117.377 191.374 116.994C191.455 116.21 191.558 115.425 191.667 114.584C191.731 114.183 191.8 113.776 191.863 113.364C191.926 112.952 192.035 112.528 192.121 112.105C192.34 111.131 192.604 110.152 192.897 109.173C192.208 109.099 189.766 108.813 188.714 108.217C187.663 107.622 186.514 106.569 186.358 105.315C186.31 105.02 186.324 104.718 186.4 104.429C186.476 104.14 186.613 103.871 186.801 103.638C186.99 103.406 187.225 103.216 187.493 103.08C187.76 102.945 188.053 102.867 188.352 102.853C190.151 102.807 192.07 105.423 192.598 106.935C192.633 107.032 192.891 108.16 193.018 108.784C193.202 108.212 193.374 107.605 193.592 107.021C194.167 105.303 194.816 103.62 195.448 101.92C195.643 101.399 195.827 100.878 196.023 100.363C195.776 100.363 192.863 100.059 191.69 99.3892C190.65 98.8167 189.49 97.7404 189.329 96.4866C189.282 96.1921 189.297 95.8911 189.374 95.6029C189.452 95.3148 189.588 95.046 189.776 94.8139C189.964 94.5818 190.199 94.3917 190.465 94.2558C190.732 94.1198 191.024 94.0412 191.323 94.0248C193.127 93.979 195.046 96.5954 195.575 98.1068C195.615 98.2213 195.982 99.8244 196.057 100.265C196.471 99.1202 196.879 97.9751 197.206 96.8301C197.692 95.2843 198.076 93.7084 198.355 92.1127C198.241 92.1127 195.195 91.8264 194 91.1394C192.954 90.5669 191.794 89.4906 191.639 88.2368C191.592 87.9423 191.607 87.6412 191.684 87.3531C191.761 87.0649 191.898 86.7961 192.086 86.564C192.274 86.332 192.509 86.1418 192.775 86.0059C193.042 85.87 193.334 85.7913 193.632 85.775C195.431 85.7349 197.35 88.3455 197.879 89.857C197.913 89.96 198.195 91.1966 198.315 91.7863H198.419C198.656 90.1737 198.748 88.5432 198.694 86.9143C198.694 86.0154 198.608 85.1624 198.522 84.3265C197.947 84.3265 195.339 84.3265 194.19 83.8342C193.041 83.3418 191.817 82.4372 191.518 81.2064C191.438 80.918 191.421 80.6162 191.466 80.3205C191.512 80.0249 191.619 79.7422 191.782 79.4909C191.945 79.2396 192.159 79.0253 192.41 78.8622C192.662 78.699 192.945 78.5907 193.242 78.5442C195.029 78.3037 197.224 80.6911 197.919 82.1395C197.953 82.2197 198.252 83.0613 198.453 83.6739C198.413 83.3017 198.373 82.9124 198.321 82.5575C198.143 81.2121 197.89 79.9869 197.66 78.9106C197.522 78.298 197.39 77.7656 197.258 77.2331C196.683 76.9469 194.431 75.7675 193.655 74.8114C192.88 73.8553 192.202 72.487 192.506 71.2561C192.572 70.9627 192.699 70.6866 192.88 70.4459C193.061 70.2052 193.291 70.0054 193.555 69.8598C193.819 69.7143 194.111 69.6262 194.411 69.6014C194.712 69.5766 195.014 69.6157 195.299 69.7161Z" fill="white"/>
<path d="M227.865 97.3855C226.457 97.3282 223.642 95.8912 223.642 95.8855C223.642 95.8798 225.153 94.3283 225.262 94.2424C226.521 93.2405 229.543 92.0497 231.042 93.0401C231.287 93.2124 231.493 93.4339 231.646 93.6904C231.799 93.9468 231.896 94.2325 231.931 94.5288C231.967 94.8252 231.939 95.1256 231.85 95.4106C231.761 95.6956 231.613 95.9588 231.416 96.1832C230.612 97.145 229.066 97.4313 227.865 97.3855Z" fill="white"/>
</g>
<path d="M211.427 132.515C211.427 132.515 202.883 111.99 198.103 112.883C193.322 113.776 206.29 145.596 206.29 145.596C206.29 145.596 191.259 117.343 181.009 117.343C170.759 117.343 184.767 148.574 197.746 158.982C197.746 158.982 177.252 136.974 165.295 141.732C153.338 146.49 189.208 168.795 189.208 168.795C189.208 168.795 168.369 162.251 170.759 167.306C173.149 172.361 179.642 173.254 179.642 173.254L156.085 174.445H238.075L219.626 172.659C219.626 172.659 238.759 163.144 233.634 159.279C228.509 155.415 217.236 163.739 217.236 163.739C217.236 163.739 236.708 142.327 232.95 134.295C229.192 126.263 212.449 148.871 212.449 148.871C212.449 148.871 226.118 120.023 223.366 114.967C220.614 109.912 211.427 132.515 211.427 132.515Z" fill="#443FBD"/>
<path opacity="0.4" d="M211.427 132.515C211.427 132.515 202.883 111.99 198.103 112.883C193.322 113.776 206.29 145.596 206.29 145.596C206.29 145.596 191.259 117.343 181.009 117.343C170.759 117.343 184.767 148.574 197.746 158.982C197.746 158.982 177.252 136.974 165.295 141.732C153.338 146.49 189.208 168.795 189.208 168.795C189.208 168.795 168.369 162.251 170.759 167.306C173.149 172.361 179.642 173.254 179.642 173.254L156.085 174.445H238.075L219.626 172.659C219.626 172.659 238.759 163.144 233.634 159.279C228.509 155.415 217.236 163.739 217.236 163.739C217.236 163.739 236.708 142.327 232.95 134.295C229.192 126.263 212.449 148.871 212.449 148.871C212.449 148.871 226.118 120.023 223.366 114.967C220.614 109.912 211.427 132.515 211.427 132.515Z" fill="white"/>
<path d="M214.162 133.591C206.641 155.718 206.641 171.377 206.641 171.377C206.641 171.377 215.523 171.714 224.751 164.907" stroke="#1D1919" stroke-linecap="round" stroke-linejoin="round"/>
<path d="M210.404 145.511C208.853 138.894 206.796 132.406 204.25 126.102" stroke="#1D1919" stroke-linecap="round" stroke-linejoin="round"/>
<path d="M188.197 132.572L207.324 160.825C207.324 160.825 220.309 149.947 224.751 143.804" stroke="#1D1919" stroke-linecap="round" stroke-linejoin="round"/>
<path d="M206.985 167.638C206.985 167.638 186.83 158.106 178.63 152.678" stroke="#1D1919" stroke-linecap="round" stroke-linejoin="round"/>
<path d="M188.892 15.2762H127.506C124.992 15.2762 122.955 17.3063 122.955 19.8105V169.911C122.955 172.415 124.992 174.445 127.506 174.445H188.892C191.405 174.445 193.443 172.415 193.443 169.911V19.8105C193.443 17.3063 191.405 15.2762 188.892 15.2762Z" fill="white" stroke="#1D1919" stroke-linecap="round" stroke-linejoin="round"/>
<path d="M191.087 43.1403C190.839 43.1403 190.6 43.0419 190.425 42.8669C190.249 42.6919 190.15 42.4546 190.15 42.2071V29.6977C190.169 29.4621 190.276 29.2421 190.45 29.0817C190.624 28.9212 190.853 28.8321 191.09 28.8321C191.327 28.8321 191.555 28.9212 191.73 29.0817C191.904 29.2421 192.011 29.4621 192.029 29.6977V42.1842C192.032 42.3089 192.009 42.4328 191.962 42.5488C191.916 42.6647 191.847 42.7702 191.759 42.8592C191.672 42.9482 191.567 43.0189 191.452 43.0672C191.336 43.1154 191.212 43.1403 191.087 43.1403Z" fill="#1D1919"/>
<path d="M191.087 54.7278C190.839 54.7278 190.6 54.6295 190.425 54.4545C190.249 54.2795 190.15 54.0421 190.15 53.7946V46.8043C190.169 46.5687 190.276 46.3487 190.45 46.1882C190.624 46.0278 190.853 45.9387 191.09 45.9387C191.327 45.9387 191.555 46.0278 191.73 46.1882C191.904 46.3487 192.011 46.5687 192.029 46.8043V53.7946C192.028 54.0427 191.928 54.28 191.751 54.4549C191.575 54.6297 191.336 54.7278 191.087 54.7278Z" fill="#1D1919"/>
<path d="M183.577 15.2762H122.191C119.678 15.2762 117.64 17.3063 117.64 19.8105V169.911C117.64 172.415 119.678 174.445 122.191 174.445H183.577C186.091 174.445 188.128 172.415 188.128 169.911V19.8105C188.128 17.3063 186.091 15.2762 183.577 15.2762Z" fill="#1D1919" stroke="#1D1919" stroke-linecap="round" stroke-linejoin="round"/>
<path d="M183.434 25.8734H122.334V162.394H183.434V25.8734Z" fill="#443FBD"/>
<path d="M143.812 21.5109H160.078" stroke="white" stroke-width="3" stroke-linecap="round" stroke-linejoin="round"/>
<path d="M150.695 167.226C150.695 168.342 149.994 169.247 149.126 169.247C148.259 169.247 147.564 168.342 147.564 167.226C147.564 166.11 148.265 165.199 149.126 165.199C149.988 165.199 150.695 166.104 150.695 167.226Z" fill="white"/>
<path d="M152.884 59.8461C158.736 59.8461 163.479 54.3352 163.479 47.5372C163.479 40.7391 158.736 35.2282 152.884 35.2282C147.033 35.2282 142.289 40.7391 142.289 47.5372C142.289 54.3352 147.033 59.8461 152.884 59.8461Z" fill="white"/>
<path d="M152.884 47.3826C155.105 47.3826 156.906 45.2884 156.906 42.7052C156.906 40.1219 155.105 38.0278 152.884 38.0278C150.663 38.0278 148.862 40.1219 148.862 42.7052C148.862 45.2884 150.663 47.3826 152.884 47.3826Z" fill="#1D1919" stroke="#1D1919" stroke-linecap="round" stroke-linejoin="round"/>
<path d="M152.884 48.6249C148.862 48.6249 145.57 51.6993 145.57 55.495C145.573 55.8482 145.606 56.2006 145.667 56.5484C146.56 57.5859 147.667 58.4188 148.912 58.9898C150.158 59.5608 151.513 59.8564 152.884 59.8564C154.255 59.8564 155.61 59.5608 156.856 58.9898C158.102 58.4188 159.208 57.5859 160.101 56.5484C160.158 56.2 160.188 55.8479 160.193 55.495C160.193 51.6993 156.917 48.6249 152.884 48.6249Z" fill="#1D1919" stroke="#1D1919" stroke-linecap="round" stroke-linejoin="round"/>
<path d="M165.766 101.153H140.002C139.321 101.126 138.677 100.83 138.214 100.331C137.751 99.8319 137.505 99.1698 137.532 98.4904V82.6434C137.532 73.5119 144.427 66.0807 152.884 66.0807C161.342 66.0807 168.231 73.5233 168.231 82.6434V98.479C168.245 98.8159 168.193 99.1523 168.077 99.4691C167.961 99.7859 167.784 100.077 167.555 100.325C167.326 100.573 167.05 100.774 166.743 100.916C166.436 101.058 166.104 101.139 165.766 101.153ZM142.467 95.8283H163.295V82.6605C163.295 76.466 158.624 71.4222 152.884 71.4222C147.144 71.4222 142.467 76.466 142.467 82.6605V95.8283Z" fill="#1D1919"/>
<path d="M170.77 90.3379H134.998V124.059H170.77V90.3379Z" fill="white"/>
<path d="M158.095 113.553L155.441 107.193C156.028 106.75 156.503 106.177 156.827 105.519C157.151 104.861 157.316 104.136 157.308 103.403C157.308 100.866 155.406 98.8225 153.057 98.8225C150.707 98.8225 148.81 100.872 148.81 103.403C148.802 104.135 148.965 104.86 149.289 105.518C149.612 106.177 150.086 106.75 150.672 107.193L148.023 113.553H158.095Z" fill="#1D1919" stroke="#1D1919" stroke-linecap="round" stroke-linejoin="round"/>
<path d="M141.985 154.362C142.04 154.402 142.106 154.424 142.174 154.425C142.223 154.424 142.271 154.412 142.314 154.389C142.357 154.366 142.394 154.333 142.421 154.293L183.434 98.708V97.6546L141.939 153.927C141.913 153.958 141.894 153.994 141.882 154.033C141.871 154.072 141.867 154.113 141.871 154.154C141.875 154.194 141.888 154.233 141.907 154.269C141.927 154.305 141.953 154.336 141.985 154.362Z" fill="white"/>
<path d="M175.183 45.8998C175.159 45.9328 175.141 45.9702 175.131 46.01C175.121 46.0499 175.12 46.0912 175.126 46.1317C175.133 46.1722 175.147 46.211 175.169 46.2459C175.19 46.2808 175.219 46.311 175.252 46.3349C175.319 46.3826 175.403 46.4021 175.484 46.3893C175.566 46.3764 175.639 46.3323 175.689 46.2662L183.434 35.7721V34.7416L175.183 45.8998Z" fill="white"/>
<path d="M122.334 118.591L172.965 49.9875C173.014 49.9207 173.034 49.8373 173.021 49.7557C173.008 49.6741 172.963 49.601 172.896 49.5524C172.829 49.5038 172.746 49.4837 172.664 49.4966C172.582 49.5095 172.508 49.5543 172.46 49.6211L122.357 117.538L122.334 118.591Z" fill="white"/>
<path d="M137.227 161.129C137.276 161.128 137.324 161.116 137.368 161.094C137.412 161.072 137.45 161.041 137.48 161.003L140.353 157.133C140.377 157.1 140.395 157.062 140.405 157.022C140.414 156.982 140.416 156.941 140.41 156.901C140.403 156.86 140.389 156.821 140.367 156.786C140.346 156.752 140.317 156.721 140.284 156.697C140.217 156.65 140.133 156.63 140.051 156.643C139.97 156.656 139.897 156.7 139.847 156.766L136.974 160.631C136.95 160.663 136.932 160.7 136.921 160.74C136.911 160.78 136.909 160.821 136.915 160.861C136.921 160.902 136.935 160.941 136.956 160.976C136.977 161.011 137.005 161.041 137.038 161.066C137.091 161.108 137.159 161.13 137.227 161.129Z" fill="white"/>
<path d="M183.434 109.838L149.764 155.472C149.73 155.519 149.71 155.573 149.705 155.631C149.7 155.688 149.712 155.745 149.738 155.796C149.764 155.847 149.804 155.89 149.853 155.92C149.903 155.95 149.959 155.965 150.017 155.965C150.066 155.966 150.115 155.955 150.159 155.933C150.203 155.911 150.241 155.878 150.27 155.839L183.434 110.885V109.838Z" fill="white"/>
<path d="M65.1825 45.6994C65.7522 44.4416 66.0273 43.0712 65.9869 41.6918C65.9869 39.1327 62.8785 37.6499 59.2243 37.2434C55.5701 36.8369 53.9498 38.3197 54.4899 39.2644C55.0511 40.0435 55.7362 40.7261 56.5181 41.2853C56.5181 41.2853 52.8639 39.2644 50.4277 40.8846C47.9915 42.5048 51.5136 41.8292 50.8356 43.4437C50.1576 45.0582 46.3713 44.3883 45.4232 48.6993C44.4752 53.0103 47.1814 57.327 44.7452 59.2163C42.3091 61.1056 34.9776 58.5408 32.8402 63.2582C30.7029 67.9757 33.7366 70.0711 28.5999 73.0367C23.4633 76.0023 19.7172 78.8992 21.2053 86.1758C22.6934 93.4524 27.5657 96 37.1725 93.4295C46.7792 90.8589 46.1012 85.0708 49.2383 79.1167C52.3755 73.1626 57.2248 74.3993 58.7129 71.0272C60.201 67.6551 58.305 63.6132 58.4429 60.5102C58.5808 57.4072 61.6892 56.7374 62.9073 53.0676C64.1253 49.3978 65.1825 45.6994 65.1825 45.6994Z" fill="#1D1919" stroke="#1D1919" stroke-linecap="round" stroke-linejoin="round"/>
<path d="M22.3257 86.0384C22.0738 86.5453 21.9458 87.1044 21.9523 87.67" stroke="white" stroke-width="0.5" stroke-linecap="round" stroke-linejoin="round"/>
<path d="M59.9884 43.0257C59.9884 43.0257 58.2992 41.0792 61.5512 41.9838C65.6479 43.1288 60.8388 47.852 58.9887 48.8024C55.277 50.6974 50.3702 50.0905 47.4974 53.537C44.8888 56.6515 48.4109 59.8976 46.8481 62.3651C45.2853 64.8326 39.0283 63.4013 36.9483 66.3727C34.8684 69.344 40.7232 75.7217 34.7305 79.2255C30.3983 81.7617 25.6524 82.735 23.3599 84.7445" stroke="white" stroke-width="0.5" stroke-linecap="round" stroke-linejoin="round"/>
<path d="M50.2726 54.5446C49.9175 55.3725 49.8097 56.285 49.9623 57.1724C50.4794 59.3766 53.4786 63.533 50.7437 65.8688C48.0088 68.2047 43.3146 68.073 42.5389 70.8096C41.7632 73.5462 43.3203 81.0632 40.7175 84.5498C38.1148 88.0364 33.0299 87.7959 30.2949 90.1318C27.56 92.4676 27.9507 93.7672 27.9507 93.7672" stroke="white" stroke-width="0.5" stroke-linecap="round" stroke-linejoin="round"/>
<path d="M51.6515 51.9798C51.4147 52.3133 51.196 52.6592 50.9965 53.016" stroke="white" stroke-width="0.5" stroke-linecap="round" stroke-linejoin="round"/>
<path d="M66.935 85.8323L67.5957 90.9848C67.5957 90.9848 71.0431 94.4199 73.577 96.5439C76.1108 98.6679 82.6034 103.162 82.6034 103.162L79.3111 104.095C79.3111 104.095 68.5495 97.7404 66.4236 97.2252C64.2977 96.7099 62.7062 93.6527 62.0454 92.7253C61.3847 91.7978 65.2055 84.9048 66.935 85.8323Z" fill="white" stroke="#1D1919" stroke-linecap="round" stroke-linejoin="round"/>
<path d="M73.508 169.665C73.508 169.665 76.7601 172.401 78.1046 173.317C79.449 174.233 81.0176 174.646 80.7705 175.144C80.5235 175.642 79.8512 176.14 76.6854 175.716C73.5195 175.293 72.606 174.222 72.0199 174.056C71.4339 173.89 70.0204 174.308 68.9402 173.644C67.8601 172.98 69.5723 169.024 69.5723 169.024C70.0467 169.576 70.7022 169.944 71.4225 170.061C72.1428 170.179 72.8816 170.038 73.508 169.665Z" fill="white" stroke="#1D1919" stroke-linecap="round" stroke-linejoin="round"/>
<path d="M80.759 175.144C80.7615 175.117 80.7615 175.09 80.759 175.064C78.9311 175.231 77.088 175.058 75.3236 174.554C73.2781 174.073 72.6748 172.991 70.7271 172.991C69.9627 172.998 69.2028 172.874 68.4805 172.625C68.4596 172.816 68.4858 173.009 68.5569 173.187C68.628 173.366 68.7418 173.525 68.8884 173.649C69.9686 174.314 71.3878 173.896 71.9681 174.062C72.5484 174.228 73.4677 175.31 76.6336 175.722C79.7994 176.134 80.5062 175.642 80.759 175.144Z" fill="white" stroke="#1D1919" stroke-linecap="round" stroke-linejoin="round"/>
<path d="M56.4836 59.0159C56.4836 59.0159 57.1099 63.2181 56.3055 64.9128C55.5011 66.6074 52.9845 66.7906 50.8356 67.1513C48.6868 67.512 43.7513 69.3841 44.2856 74.2103C44.8199 79.0366 51.0138 89.4906 51.0138 92.439C51.0138 95.3874 49.1292 96.9046 47.0665 102.624C45.0038 108.343 45.2739 118.981 45.9174 125.862C46.389 130.404 47.2893 134.891 48.6063 139.265C48.6063 139.265 43.4352 147.577 41.137 151.15C38.8387 154.722 30.7948 170.277 30.7948 170.277C30.7948 170.277 30.7948 170.81 32.0474 171.17C32.9286 171.384 33.8403 171.444 34.7421 171.348C34.7421 171.348 50.1634 152.85 53.0362 149.724C55.9091 146.598 58.598 141.137 58.9543 138.641C59.3105 136.144 58.8681 120.858 58.8681 120.858C58.8681 120.858 62.0914 128.541 64.6137 132.475C66.1436 134.881 67.5474 137.366 68.8195 139.917C68.4663 143.152 68.4663 146.415 68.8195 149.65C69.4458 154.115 68.9172 168.463 69.5435 169.625C70.1698 170.787 72.6002 170.3 73.1403 169.768C73.6804 169.235 73.9332 165.76 73.9332 165.76C73.9332 165.76 75.0076 154.883 75.6569 149.764C76.3061 144.646 77.3806 140.289 77.0071 139.127C76.6336 137.965 74.4043 125.541 72.6979 119.662C70.9914 113.782 65.8031 102.773 64.6539 99.916C63.5048 97.0592 62.8556 94.46 63.0394 93.5669C63.2233 92.6737 66.7166 87.3151 67.6359 85.8838C68.16 84.9135 68.4491 83.8346 68.48 82.7331C68.5109 81.6317 68.2829 80.5383 67.8141 79.5404C66.7396 77.216 67.8141 74.0844 67.6359 72.2123C67.4578 70.3402 64.6769 69.5272 63.2405 68.8173C61.8041 68.1074 61.264 66.4929 61.264 65.1532C61.3517 64.0247 61.6254 62.9183 62.0741 61.8785C62.0741 61.8785 57.65 59.0159 56.4836 59.0159Z" fill="white" stroke="#1D1919" stroke-linecap="round" stroke-linejoin="round"/>
<path d="M67.3544 78.132C66.8819 76.9356 66.4884 75.7098 66.1765 74.4622" stroke="#1D1919" stroke-linecap="round" stroke-linejoin="round"/>
<path d="M55.708 88.0822C55.708 88.0822 57.3283 88.4372 60.5746 86.8227" stroke="#1D1919" stroke-linecap="round" stroke-linejoin="round"/>
<path d="M72.7151 119.605C71.0891 113.971 66.2685 103.683 64.8263 100.288C57.9315 102.864 51.4849 100.666 48.4569 99.2462C48.0203 100.197 47.5491 101.296 47.0665 102.624C45.0038 108.349 45.2739 118.981 45.9174 125.862C46.389 130.404 47.2893 134.891 48.6063 139.265C48.6063 139.265 43.4352 147.577 41.137 151.15C38.8387 154.722 30.7948 170.277 30.7948 170.277C30.7948 170.277 30.7948 170.81 32.0474 171.17C32.9286 171.384 33.8403 171.444 34.7421 171.348C34.7421 171.348 50.1634 152.85 53.0362 149.724C55.9091 146.598 58.598 141.137 58.9543 138.641C59.3105 136.144 58.8681 120.858 58.8681 120.858C58.8681 120.858 62.0914 128.541 64.6137 132.475C66.1436 134.881 67.5474 137.366 68.8195 139.917C68.4663 143.152 68.4663 146.415 68.8195 149.65C69.4458 154.115 68.9172 168.463 69.5435 169.625C70.1698 170.787 72.6002 170.3 73.1403 169.768C73.6804 169.235 73.9332 165.76 73.9332 165.76C73.9332 165.76 75.0076 154.883 75.6569 149.764C76.3061 144.646 77.3806 140.289 77.0071 139.127C76.6336 137.965 74.4216 125.501 72.7151 119.605Z" fill="#1D1919" stroke="#1D1919" stroke-linecap="round" stroke-linejoin="round"/>
<path d="M107.844 113.931V112.763H108.827V103.591H107.844H98.1454H97.1629V112.763H98.1454V113.931H97.1571V116.061H100.943V115.345H105.046V116.061H108.832V113.931H107.844Z" fill="#443FBD" stroke="#1D1919" stroke-linecap="round" stroke-linejoin="round"/>
<path d="M45.1589 100.849H112.82C113.091 100.849 113.351 100.957 113.543 101.148C113.735 101.339 113.842 101.598 113.842 101.868V103.918C113.842 104.188 113.735 104.447 113.543 104.638C113.351 104.83 113.091 104.937 112.82 104.937H45.1589V100.843V100.849Z" fill="#443FBD" stroke="#1D1919" stroke-linecap="round" stroke-linejoin="round"/>
<path d="M93.7212 100.237H89.6015C89.2874 100.237 89.0327 100.49 89.0327 100.803V104.988C89.0327 105.301 89.2874 105.555 89.6015 105.555H93.7212C94.0353 105.555 94.29 105.301 94.29 104.988V100.803C94.29 100.49 94.0353 100.237 93.7212 100.237Z" fill="#443FBD" stroke="#1D1919" stroke-linecap="round" stroke-linejoin="round"/>
<path d="M47.2758 104.617C48.2291 98.8168 44.2827 93.3443 38.4612 92.3944C32.6396 91.4445 27.1476 95.3769 26.1943 101.178C25.2409 106.978 29.1874 112.451 35.0089 113.401C40.8304 114.35 46.3225 110.418 47.2758 104.617Z" fill="#443FBD" stroke="#1D1919" stroke-linecap="round" stroke-linejoin="round"/>
<path d="M38.9306 102.87C39.5498 102.575 40.0753 102.115 40.4494 101.541C40.8234 100.967 41.0315 100.302 41.0508 99.6183C41.0508 97.5286 39.1202 95.834 36.7358 95.834C34.3513 95.834 32.4208 97.5515 32.4208 99.6183C32.4388 100.302 32.6463 100.968 33.0205 101.542C33.3947 102.116 33.9209 102.576 34.5409 102.87C33.9212 103.167 33.3955 103.627 33.0215 104.202C32.6475 104.777 32.4396 105.443 32.4208 106.128C32.4208 108.217 34.3513 109.912 36.7358 109.912C39.1202 109.912 41.0508 108.194 41.0508 106.128C41.0306 105.443 40.8222 104.778 40.4484 104.203C40.0745 103.629 39.5495 103.168 38.9306 102.87Z" fill="white" stroke="#1D1919" stroke-linecap="round" stroke-linejoin="round"/>
<path d="M80.4948 105.028C80.4948 105.028 83.8387 106.437 84.8729 106.437C85.9072 106.437 87.1023 105.401 87.6941 104.147C88.2859 102.893 88.2686 102.298 87.9181 102.595L87.177 103.168C87.177 103.168 87.7515 101.914 87.1023 102.063C86.6527 102.212 86.2794 102.531 86.0623 102.95C86.0623 102.95 85.9876 101.84 85.3958 102.378C85.0041 102.731 84.6551 103.129 84.3558 103.563C84.3558 103.563 84.2811 102.16 83.9077 102.527C83.5342 102.893 82.1323 104.891 82.1323 104.891L80.4948 105.028Z" fill="white" stroke="#1D1919" stroke-linecap="round" stroke-linejoin="round"/>
<path d="M84.3558 103.551C84.3558 103.551 84.1317 105.326 83.0228 105.624L84.3558 103.551Z" fill="white"/>
<path d="M84.3558 103.551C84.3558 103.551 84.1317 105.326 83.0228 105.624" stroke="#1D1919" stroke-linecap="round" stroke-linejoin="round"/>
<path d="M86.0622 102.962C86.0622 102.962 85.4876 105.767 84.5798 106.214L86.0622 102.962Z" fill="white"/>
<path d="M86.0622 102.962C86.0622 102.962 85.4876 105.767 84.5798 106.214" stroke="#1D1919" stroke-linecap="round" stroke-linejoin="round"/>
<path d="M87.1769 103.179C86.8806 104.203 86.4822 105.195 85.9875 106.139L87.1769 103.179Z" fill="white"/>
<path d="M87.1769 103.179C86.8806 104.203 86.4822 105.195 85.9875 106.139" stroke="#1D1919" stroke-linecap="round" stroke-linejoin="round"/>
<path d="M63.0279 68.6455C62.4492 68.2562 61.9805 67.7254 61.6666 67.1039C61.3527 66.4824 61.2042 65.791 61.2352 65.096C61.3382 63.9853 61.6216 62.8987 62.0741 61.8785C62.0741 61.8785 57.6787 59.0159 56.5123 59.0159C56.5123 59.0159 57.1386 63.2181 56.3342 64.9128C56.0705 65.4399 55.6406 65.8663 55.1104 66.1265C56.1726 68.9762 57.6122 71.6718 59.3909 74.1416C61.0054 76.1626 61.7926 71.9031 63.0279 68.6455Z" fill="white" stroke="#1D1919" stroke-linecap="round" stroke-linejoin="round"/>
<path d="M49.4624 67.7296C48.366 67.9161 47.3281 68.354 46.4307 69.0088C45.5332 69.6636 44.8009 70.5172 44.2913 71.5024C42.5216 74.9031 34.788 90.3379 35.4487 91.2597C39.2064 96.5268 52.8753 100.317 54.2658 101.702C55.6558 103.151 57.1815 104.464 58.8221 105.624C60.2125 106.506 62.9877 106.128 63.4933 105.876C63.9989 105.624 64.3781 104.49 63.4933 104.49C63.1552 104.495 62.8259 104.384 62.5603 104.175C62.2946 103.967 62.1088 103.674 62.0339 103.345C61.9075 102.842 63.4243 103.849 64.1828 103.471C64.9412 103.093 62.4878 101.714 61.7294 101.084C60.9709 100.454 60.3389 99.5782 59.3277 99.5782C58.3164 99.5782 56.4146 99.5782 56.4146 99.5782C56.4146 99.5782 51.7607 96.2176 48.9453 93.7157C46.7546 91.7461 44.3651 90.0078 41.8149 88.5288L50.3472 74.5424" fill="white"/>
<path d="M49.4624 67.7296C48.366 67.9161 47.3281 68.354 46.4307 69.0088C45.5332 69.6636 44.8009 70.5172 44.2913 71.5024C42.5216 74.9031 34.788 90.3379 35.4487 91.2597C39.2064 96.5268 52.8753 100.317 54.2658 101.702C55.6558 103.151 57.1815 104.464 58.8221 105.624C60.2125 106.506 62.9877 106.128 63.4933 105.876C63.9989 105.624 64.3781 104.49 63.4933 104.49C63.1552 104.495 62.8259 104.384 62.5603 104.175C62.2946 103.967 62.1088 103.674 62.0339 103.345C61.9075 102.842 63.4243 103.849 64.1828 103.471C64.9412 103.093 62.4878 101.714 61.7294 101.084C60.9709 100.454 60.3389 99.5782 59.3277 99.5782C58.3164 99.5782 56.4146 99.5782 56.4146 99.5782C56.4146 99.5782 51.7607 96.2176 48.9453 93.7157C46.7546 91.7461 44.3651 90.0078 41.8149 88.5288L50.3472 74.5424" stroke="#1D1919" stroke-linecap="round" stroke-linejoin="round"/>
<path d="M61.7236 101.09C60.9652 100.46 60.3332 99.5839 59.3219 99.5839C58.3107 99.5839 56.4089 99.5839 56.4089 99.5839C56.4089 99.5839 51.7549 96.2233 48.9395 93.7214C46.7488 91.7518 44.3593 90.0135 41.8092 88.5345L45.2221 82.9353C43.4772 81.883 41.4814 81.3156 39.4419 81.2922C37.1437 86.067 35.081 90.7844 35.42 91.2825C39.1776 96.5496 52.8466 100.34 54.237 101.725C55.6271 103.174 57.1527 104.487 58.7933 105.647C60.1838 106.528 62.9589 106.151 63.4645 105.899C63.9701 105.647 64.3494 104.513 63.4645 104.513C63.1265 104.518 62.7971 104.406 62.5315 104.198C62.2659 103.99 62.0801 103.697 62.0051 103.368C61.8787 102.864 63.3956 103.872 64.154 103.494C64.9124 103.116 62.482 101.725 61.7236 101.09Z" fill="white" stroke="#1D1919" stroke-linecap="round" stroke-linejoin="round"/>
<path d="M66.349 52.85C65.9008 51.9569 65.9008 51.2413 66.0789 49.9875C66.257 48.7337 65.1826 45.6937 65.1826 45.6937C64.0852 47.5829 60.9136 48.7051 59.5116 49.1287C57.966 49.5982 60.2241 50.663 59.9828 52.0886C59.7415 53.5141 56.656 54.3385 56.656 54.3385C56.656 54.3385 55.754 52.4893 54.5014 52.4893C53.2489 52.4893 52.3583 55.3519 53.0707 56.869C53.2564 57.2893 53.5798 57.6343 53.9879 57.8476C54.3961 58.0608 54.8648 58.1296 55.3173 58.0427C55.3173 58.0427 55.2311 60.7277 56.9318 61.5293C58.7465 62.392 60.6396 63.0802 62.5856 63.5846C63.66 63.7621 64.7344 63.2296 65.1826 61.6209C65.5331 59.9996 65.773 58.3566 65.9008 56.703C66.6531 56.2125 67.3454 55.6361 67.9635 54.9855C68.3944 54.3672 66.7971 53.7431 66.349 52.85Z" fill="white" stroke="#1D1919" stroke-linecap="round" stroke-linejoin="round"/>
<path d="M64.6022 52.8901C64.6022 53.3824 64.4414 53.7775 64.246 53.7775C64.0506 53.7775 63.8898 53.3824 63.8898 52.8901C63.8898 52.3977 64.0506 52.0027 64.246 52.0027C64.4414 52.0027 64.6022 52.3977 64.6022 52.8901Z" fill="#1D1919"/>
<path d="M63.0566 51.413C63.0566 51.413 64.0104 50.3424 64.7229 50.5829" stroke="#1D1919" stroke-linecap="round" stroke-linejoin="round"/>
<path d="M64.7229 58.7526C64.2923 58.882 63.8353 58.8972 63.3969 58.7968C62.9586 58.6964 62.5542 58.4838 62.2235 58.1801" stroke="#1D1919" stroke-linecap="round" stroke-linejoin="round"/>
<path d="M30.835 170.277C30.835 170.277 28.6919 174.56 28.7724 175.144C28.8528 175.728 33.1046 178.796 35.0926 179.873C37.0806 180.949 40.6773 181.121 40.4245 179.626C40.1717 178.132 36.7588 177.136 35.9257 174.892C35.482 173.731 35.0985 172.548 34.7766 171.348C33.3877 171.369 32.0213 170.997 30.835 170.277Z" fill="white" stroke="#1D1919" stroke-linecap="round" stroke-linejoin="round"/>
<path d="M40.436 179.649C38.9063 179.854 37.3497 179.634 35.9372 179.014C32.8518 177.68 29.864 174.955 29.0424 174.182C28.8965 174.491 28.8033 174.822 28.7666 175.161C28.8528 175.733 33.0988 178.813 35.0868 179.89C37.0748 180.966 40.6429 181.115 40.436 179.649Z" fill="white" stroke="#1D1919" stroke-linecap="round" stroke-linejoin="round"/>
</svg>
