<svg width="17" height="20" viewBox="0 0 17 20" fill="none" xmlns="http://www.w3.org/2000/svg">
<path d="M14.0292 10.6051C14.0568 13.626 16.638 14.6313 16.6665 14.6441C16.6446 14.715 16.2541 16.0767 15.3067 17.4832C14.4877 18.6993 13.6376 19.9109 12.2986 19.9359C10.983 19.9606 10.5598 19.1434 9.05558 19.1434C7.55177 19.1434 7.08171 19.9109 5.83621 19.9606C4.54371 20.0103 3.55946 18.6457 2.73371 17.434C1.04621 14.9557 -0.243355 10.4309 1.48821 7.37651C2.3484 5.85968 3.88571 4.89924 5.55421 4.8746C6.8234 4.85003 8.02139 5.74203 8.79727 5.74203C9.57265 5.74203 11.0285 4.66933 12.5589 4.82686C13.1995 4.85397 14.998 5.08971 16.1528 6.80692C16.0597 6.86552 14.0069 8.07956 14.0292 10.6051M11.5565 3.18724C12.2428 2.34343 12.7046 1.16883 12.5786 0C11.5895 0.040381 10.3935 0.669587 9.68396 1.51289C9.04815 2.25975 8.49133 3.45505 8.64158 4.6007C9.74408 4.68737 10.8703 4.03156 11.5565 3.18724Z" fill="#1D1919"/>
</svg>
