<svg width="32" height="32" viewBox="0 0 32 32" fill="none" xmlns="http://www.w3.org/2000/svg">
<path d="M11.3335 19.3334H20.6669M16.0002 24V14.6667" stroke="#919191" stroke-linecap="round"/>
<path d="M9.33365 8.00067C7.70613 8.00555 6.80543 8.04448 6.06529 8.35514C5.02859 8.79027 4.18433 9.59404 3.69113 10.6155C3.28856 11.4492 3.22269 12.5173 3.09093 14.6536L2.88448 18.0012C2.55684 23.3138 2.39301 25.97 3.95191 27.6518C5.51079 29.3334 8.13703 29.3334 13.3895 29.3334H18.6111C23.8637 29.3334 26.4898 29.3334 28.0488 27.6518C29.6077 25.97 29.4438 23.3138 29.1162 18.0012L28.9097 14.6536C28.7779 12.5173 28.7121 11.4492 28.3095 10.6155C27.8163 9.59404 26.9721 8.79027 25.9354 8.35514C25.1953 8.04448 24.2945 8.00555 22.667 8.00067" stroke="#919191" stroke-linecap="round"/>
<path d="M22.6669 9.33335L21.4858 6.38059C20.9762 5.10663 20.5327 3.66149 19.2223 3.01275C18.5234 2.66669 17.6823 2.66669 16.0002 2.66669C14.3181 2.66669 13.477 2.66669 12.778 3.01275C11.4676 3.66149 11.0242 5.10663 10.5146 6.38059L9.3335 9.33335" stroke="#919191" stroke-linecap="round" stroke-linejoin="round"/>
<path d="M16 8H16.0141" stroke="#919191" stroke-width="1.2" stroke-linecap="round" stroke-linejoin="round"/>
</svg>
