<svg width="19" height="19" viewBox="0 0 19 19" fill="none" xmlns="http://www.w3.org/2000/svg">
<path d="M0.312508 9.5C0.312508 4.42588 4.42588 0.3125 9.50001 0.3125C14.5741 0.3125 18.6875 4.42588 18.6875 9.5C18.6875 14.5741 14.5741 18.6875 9.50001 18.6875C7.94601 18.6875 6.47994 18.301 5.19501 17.6185L1.56726 18.6501C1.39865 18.6979 1.22035 18.6998 1.05076 18.6556C0.881165 18.6115 0.726437 18.5229 0.602552 18.3989C0.478668 18.275 0.390119 18.1202 0.346052 17.9506C0.301986 17.7809 0.303998 17.6026 0.351883 17.4341L1.38351 13.807C0.678392 12.481 0.310568 11.0018 0.312508 9.5ZM5.56251 7.53125C5.56251 7.7053 5.63165 7.87222 5.75472 7.99529C5.87779 8.11836 6.04471 8.1875 6.21876 8.1875H12.7813C12.9553 8.1875 13.1222 8.11836 13.2453 7.99529C13.3684 7.87222 13.4375 7.7053 13.4375 7.53125C13.4375 7.3572 13.3684 7.19028 13.2453 7.06721C13.1222 6.94414 12.9553 6.875 12.7813 6.875H6.21876C6.04471 6.875 5.87779 6.94414 5.75472 7.06721C5.63165 7.19028 5.56251 7.3572 5.56251 7.53125ZM6.21876 10.8125C6.04471 10.8125 5.87779 10.8816 5.75472 11.0047C5.63165 11.1278 5.56251 11.2947 5.56251 11.4688C5.56251 11.6428 5.63165 11.8097 5.75472 11.9328C5.87779 12.0559 6.04471 12.125 6.21876 12.125H10.1563C10.3303 12.125 10.4972 12.0559 10.6203 11.9328C10.7434 11.8097 10.8125 11.6428 10.8125 11.4688C10.8125 11.2947 10.7434 11.1278 10.6203 11.0047C10.4972 10.8816 10.3303 10.8125 10.1563 10.8125H6.21876Z" fill="#1D1919"/>
</svg>
