<svg width="18" height="19" viewBox="0 0 18 19" fill="none" xmlns="http://www.w3.org/2000/svg">
<path d="M0.25 15.625C0.25 17.1125 1.3875 18.25 2.875 18.25H15.125C16.6125 18.25 17.75 17.1125 17.75 15.625V8.625H0.25V15.625ZM15.125 2.5H13.375V1.625C13.375 1.1 13.025 0.75 12.5 0.75C11.975 0.75 11.625 1.1 11.625 1.625V2.5H6.375V1.625C6.375 1.1 6.025 0.75 5.5 0.75C4.975 0.75 4.625 1.1 4.625 1.625V2.5H2.875C1.3875 2.5 0.25 3.6375 0.25 5.125V6.875H17.75V5.125C17.75 3.6375 16.6125 2.5 15.125 2.5Z" fill="#1D1919"/>
</svg>
