<svg width="21" height="21" viewBox="0 0 21 21" fill="none" xmlns="http://www.w3.org/2000/svg">
<path d="M18.5543 6.79438C18.3362 6.32753 17.9825 5.93723 17.5393 5.67438L11.878 2.17438C11.4628 1.91712 10.984 1.78082 10.4955 1.78082C10.007 1.78082 9.52826 1.91712 9.11302 2.17438L3.45177 5.67438C3.02261 5.94771 2.68214 6.33986 2.47177 6.80313C2.25324 7.26641 2.18003 7.78497 2.26177 8.29064L3.73177 17.0406C3.82603 17.6508 4.1366 18.2067 4.60677 18.6069C5.0732 18.9976 5.66086 19.2141 6.26927 19.2194H14.6868C15.3072 19.2222 15.9086 19.0052 16.3843 18.6069C16.8569 18.2088 17.1681 17.6518 17.2593 17.0406L18.7293 8.29064C18.8184 7.7855 18.7575 7.26532 18.5543 6.79438ZM13.4268 15.2819H7.57302C7.34095 15.2819 7.11839 15.1897 6.9543 15.0256C6.7902 14.8615 6.69802 14.6389 6.69802 14.4069C6.69802 14.1748 6.7902 13.9523 6.9543 13.7882C7.11839 13.6241 7.34095 13.5319 7.57302 13.5319H13.4268C13.6588 13.5319 13.8814 13.6241 14.0455 13.7882C14.2096 13.9523 14.3018 14.1748 14.3018 14.4069C14.3018 14.6389 14.2096 14.8615 14.0455 15.0256C13.8814 15.1897 13.6588 15.2819 13.4268 15.2819Z" fill="white"/>
</svg>
