<svg width="20" height="20" viewBox="0 0 20 20" fill="none" xmlns="http://www.w3.org/2000/svg">
<path fill-rule="evenodd" clip-rule="evenodd" d="M6.0883 6.46501L6.37414 9.03835L5.7958 9.08418C5.40371 9.11541 5.03342 9.2772 4.74412 9.54369C4.45482 9.81018 4.26323 10.166 4.19997 10.5542C3.89802 12.3947 3.89802 14.272 4.19997 16.1125C4.26306 16.5009 4.45458 16.8569 4.74389 17.1235C5.0332 17.3902 5.40359 17.5521 5.7958 17.5833L7.04247 17.6833C9.0108 17.84 10.9891 17.84 12.9575 17.6833L14.2041 17.5833C14.5962 17.5521 14.9665 17.3903 15.2558 17.1238C15.5451 16.8573 15.7367 16.5016 15.8 16.1133C16.1019 14.2729 16.1019 12.3955 15.8 10.555C15.7367 10.1668 15.5451 9.81101 15.2558 9.54453C14.9665 9.27804 14.5962 9.11625 14.2041 9.08501L13.6258 9.03918L13.9116 6.46585C13.945 6.1614 13.945 5.85724 13.9116 5.55335L13.8925 5.38251C13.7856 4.42492 13.3295 3.54031 12.6114 2.89788C11.8932 2.25545 10.9635 1.90027 9.99997 1.90027C9.03642 1.90027 8.10669 2.25545 7.38857 2.89788C6.67045 3.54031 6.21434 4.42492 6.10747 5.38251L6.0883 5.55335C6.0549 5.8566 6.0549 6.1626 6.0883 6.46585M10.3116 3.16668C9.96247 3.12563 9.60863 3.15403 9.27048 3.25024C8.93233 3.34645 8.61655 3.50858 8.34129 3.7273C8.06604 3.94602 7.83675 4.217 7.66662 4.52467C7.49649 4.83233 7.38887 5.1706 7.34997 5.52001L7.3308 5.69085C7.30757 5.90243 7.30757 6.11593 7.3308 6.32751L7.62164 8.94335C9.20497 8.84168 10.7941 8.84168 12.3783 8.94335L12.6691 6.32668C12.6923 6.11537 12.6923 5.90216 12.6691 5.69085L12.65 5.52001C12.5835 4.92115 12.3162 4.36245 11.8915 3.93495C11.4669 3.50745 10.91 3.23719 10.3116 3.16668ZM9.99997 12.0833C9.66845 12.0833 9.35051 12.215 9.11609 12.4495C8.88166 12.6839 8.74997 13.0018 8.74997 13.3333C8.74997 13.6649 8.88166 13.9828 9.11609 14.2172C9.35051 14.4517 9.66845 14.5833 9.99997 14.5833C10.3315 14.5833 10.6494 14.4517 10.8839 14.2172C11.1183 13.9828 11.25 13.6649 11.25 13.3333C11.25 13.0018 11.1183 12.6839 10.8839 12.4495C10.6494 12.215 10.3315 12.0833 9.99997 12.0833Z" fill="#919191"/>
</svg>
