<svg width="20" height="20" viewBox="0 0 20 20" fill="none" xmlns="http://www.w3.org/2000/svg">
<path fill-rule="evenodd" clip-rule="evenodd" d="M4.16663 16.6667C3.50358 16.6667 2.8677 16.4033 2.39886 15.9344C1.93002 15.4656 1.66663 14.8297 1.66663 14.1667V5.83334C1.66663 5.1703 1.93002 4.53442 2.39886 4.06558C2.8677 3.59674 3.50358 3.33334 4.16663 3.33334H15.8333C16.4963 3.33334 17.1322 3.59674 17.6011 4.06558C18.0699 4.53442 18.3333 5.1703 18.3333 5.83334V14.1667C18.3333 14.8297 18.0699 15.4656 17.6011 15.9344C17.1322 16.4033 16.4963 16.6667 15.8333 16.6667H4.16663ZM6.35413 6.85001C6.26924 6.77752 6.17065 6.72283 6.06422 6.68918C5.95779 6.65553 5.84568 6.6436 5.73455 6.65411C5.62342 6.66461 5.51554 6.69734 5.4173 6.75034C5.31906 6.80334 5.23247 6.87554 5.16267 6.96265C5.09287 7.04976 5.04128 7.15001 5.01097 7.25744C4.98066 7.36487 4.97223 7.47729 4.98621 7.58804C5.00018 7.69879 5.03626 7.8056 5.0923 7.90214C5.14834 7.99867 5.22321 8.08296 5.31246 8.15001L8.43746 10.6508C8.88086 11.0059 9.43195 11.1993 9.99996 11.1993C10.568 11.1993 11.1191 11.0059 11.5625 10.6508L14.6875 8.15084C14.7729 8.08245 14.8441 7.99789 14.8969 7.90199C14.9497 7.80609 14.983 7.70073 14.9951 7.59193C15.0072 7.48313 14.9977 7.37302 14.9672 7.26789C14.9367 7.16275 14.8859 7.06465 14.8175 6.97918C14.7491 6.89371 14.6645 6.82255 14.5686 6.76976C14.4727 6.71697 14.3673 6.68359 14.2586 6.67152C14.1498 6.65945 14.0396 6.66892 13.9345 6.6994C13.8294 6.72989 13.7313 6.78078 13.6458 6.84918L10.5208 9.34918C10.373 9.46751 10.1893 9.53199 9.99996 9.53199C9.81062 9.53199 9.62693 9.46751 9.47913 9.34918L6.35413 6.85001Z" fill="#919191"/>
</svg>
