<svg width="209" height="209" viewBox="0 0 209 209" fill="none" xmlns="http://www.w3.org/2000/svg">
<path d="M163.141 19.8508C163.141 19.8508 142.295 2.82568 115.184 10.3748C88.0725 17.9238 76.728 41.2775 61.1742 57.3329C53.0316 65.743 41.0015 68.8446 31.329 75.3069C0.41791 96.0104 4.97829 142.538 28.8419 160.094C49.4911 175.288 75.2943 176.877 108.868 165.67C142.442 154.464 166.473 147.73 187.297 115.631C208.122 83.5331 188.819 42.9537 163.141 19.8508Z" fill="#443FBD"/>
<path opacity="0.7" d="M163.141 19.8508C163.141 19.8508 142.295 2.82568 115.184 10.3748C88.0725 17.9238 76.728 41.2775 61.1742 57.3329C53.0316 65.743 41.0015 68.8446 31.329 75.3069C0.41791 96.0104 4.97829 142.538 28.8419 160.094C49.4911 175.288 75.2943 176.877 108.868 165.67C142.442 154.464 166.473 147.73 187.297 115.631C208.122 83.5331 188.819 42.9537 163.141 19.8508Z" fill="white"/>
<path d="M103.702 87.9346C75.332 87.9346 48.8058 95.559 30.9279 108.835L33.9166 110.298C50.6575 97.8496 75.2986 90.5889 101.775 90.2336V96.838C59.2098 97.4943 24.9003 118.541 24.9003 144.331C24.9003 152.654 28.4826 160.483 34.7568 167.292L25.2807 170.749C17.9741 162.869 13.9362 153.824 13.9362 144.331C13.9362 135.202 17.7818 126.177 25.055 118.24L21.6859 117.119C14.0992 125.4 10.0864 134.809 10.0864 144.331C10.0864 155.847 15.813 166.903 26.6476 176.363C37.2313 185.584 51.9324 192.639 69.1624 196.761L70.5836 194.604C52.0912 190.19 37.1227 182.432 27.2244 172.751L36.7047 169.29C50.6157 182.791 75.4407 191.799 103.702 191.799C147.149 191.799 182.499 170.481 182.499 144.331C182.499 128.067 168.91 113.111 146.133 104.329L144.043 106.281C165.695 114.641 178.624 128.853 178.624 144.319C178.624 160.621 164.203 174.937 142.638 182.875L137.698 178.147C146.63 174.883 154.271 170.306 159.914 164.654L156.616 163.459C145.33 174.745 125.542 181.508 103.677 181.508C84.6618 181.508 66.993 176.346 55.1886 167.346L52.1665 168.784C57.4196 172.697 63.223 175.81 69.3881 178.022L64.6354 182.85C43.1251 174.908 28.7459 160.612 28.7459 144.331C28.7459 119.435 62.3699 99.1872 103.698 99.1872C114.129 99.1404 124.52 100.484 134.596 103.183L136.184 101.093C126.21 98.4183 115.938 97.0138 105.612 96.9133V90.288C154.242 90.8899 193.463 114.9 193.463 144.331C193.463 174.147 153.197 198.404 103.702 198.404C97.6684 198.4 91.6409 198.03 85.6525 197.296L84.8834 199.566C91.1244 200.328 97.406 200.709 103.693 200.707C155.308 200.707 197.325 175.409 197.325 144.314C197.325 113.219 155.316 87.9346 103.702 87.9346ZM72.7321 179.176C82.1162 182.206 92.6958 183.841 103.706 183.841C114.716 183.841 125.112 182.248 134.37 179.322L139.324 184.066C128.723 187.532 116.589 189.5 103.702 189.5C90.8148 189.5 78.6008 187.519 67.9711 184.033L72.7321 179.176Z" fill="#1D1919"/>
<path d="M164.408 159.308C167.647 154.551 169.286 149.51 169.286 144.331C169.286 122.545 139.863 104.818 103.702 104.818C88.3151 104.818 73.3549 108.095 61.584 114.039L64.0585 115.815C75.1397 110.218 89.218 107.138 103.702 107.138C113.186 107.094 122.625 108.461 131.708 111.192L126.361 118.056C119.021 115.801 111.381 114.673 103.702 114.712C100.573 114.71 97.4467 114.889 94.3385 115.247L95.0658 117.525C97.9328 117.199 100.816 117.037 103.702 117.04C128.326 117.04 148.39 128.907 148.992 143.65H136.063C135.85 139.888 133.86 136.276 130.278 133.179L127.122 134.508C130.466 137.397 132.234 140.778 132.234 144.331C132.234 153.226 120.718 160.754 106.017 161.469L106.323 163.781C110.289 163.598 114.219 162.937 118.027 161.812L124.744 168.5C117.925 170.612 110.823 171.669 103.685 171.635C87.9096 171.635 74.0069 166.753 65.8768 159.367L77.1879 155.563C80.603 158.489 85.3556 160.851 91.0781 162.309L92.5787 160.173C91.6173 159.925 90.6879 159.647 89.7906 159.337L95.5423 153.945C98.1832 154.739 100.927 155.136 103.685 155.124C105.099 155.125 106.511 155.025 107.911 154.823L107.008 152.57C105.901 152.731 104.783 152.81 103.664 152.808C95.8892 152.808 89.5691 149 89.5691 144.319C89.5691 139.637 95.9269 135.85 103.702 135.85C111.476 135.85 117.792 139.662 117.792 144.344C117.792 146.354 116.601 148.311 114.448 149.84L117.374 151.341C120.129 149.393 121.646 146.906 121.646 144.344C121.646 138.383 113.6 133.534 103.706 133.534C100.915 133.522 98.1372 133.929 95.4671 134.742L89.636 129.371C94.1721 127.867 98.9229 127.113 103.702 127.139C109.775 127.139 115.573 128.272 120.468 130.42L122.733 128.543C117.178 126.106 110.611 124.819 103.702 124.819C92.7208 124.819 82.5759 128.134 76.5651 133.676L79.7879 134.93C81.7636 133.163 84.0032 131.714 86.4257 130.637L92.2526 136C88.29 137.986 85.7569 140.975 85.7569 144.319C85.7569 147.663 88.3234 150.693 92.3404 152.679L86.5804 158.088C79.4744 154.89 75.1648 149.832 75.1648 144.331C75.1683 142.883 75.4611 141.451 76.0259 140.118L72.314 139.553C71.6737 141.065 71.3412 142.689 71.3359 144.331C71.3359 147.633 72.7153 150.798 75.2024 153.582L63.9164 157.377C60.3969 153.498 58.3946 149.055 58.3946 144.331C58.3946 133.881 68.4893 124.225 84.1184 119.703L82.4464 117.613C66.0733 122.353 55.3014 132.297 54.5825 143.169H42.0007C42.3894 135.428 46.6614 128.1 54.432 121.914L51.3639 120.514C42.6946 127.415 38.1133 135.649 38.1133 144.34C38.1133 150.497 40.3997 156.395 44.91 161.87L48.3585 160.842C44.4 156.031 42.2598 150.877 41.9923 145.497H54.5783C55.594 161.294 77.2339 173.959 103.702 173.959C130.813 173.959 152.871 160.671 152.871 144.34C152.871 133.756 143.608 124.459 129.714 119.218L135.098 112.317C153.243 118.804 165.436 130.709 165.436 144.331C165.436 149.209 163.894 153.945 160.838 158.426L164.408 159.308ZM128.084 167.325L121.375 160.637C129.513 157.41 135.102 152.043 135.963 145.961H148.921C148.047 154.936 139.946 162.744 128.084 167.325Z" fill="#1D1919"/>
<path opacity="0.3" d="M116.371 135.503C116.334 135.382 116.212 135.006 113.863 135.19L109.152 135.545C108.609 135.127 102.255 130.345 102.234 130.391C102 130.182 98.5059 127.168 97.4233 126.303C97.7967 126.294 98.1573 126.165 98.4515 125.935C98.5978 125.764 99.2165 124.974 99.3252 124.832C101.511 123.448 105.662 120.827 105.921 120.689C106.64 120.305 106.728 119.949 106.674 119.719C106.594 119.364 106.143 119.155 105.42 119.13C104.977 119.13 103.384 118.821 101.541 118.486C98.3345 117.901 93.9413 117.103 91.8639 117.048C89.6911 117.028 87.5222 117.237 85.3932 117.671C84.4611 117.797 83.2489 117.989 81.8737 118.248C81.632 117.605 81.2829 117.007 80.8412 116.48C81.4097 115.865 81.3721 115.318 81.0251 115.017C80.7743 114.8 77.8609 114.448 77.7146 114.72C76.6737 114.72 75.5075 114.8 74.3998 114.896C74.5378 114.787 74.0821 114.628 73.5931 114.971C72.8867 115.046 72.2262 115.134 71.6619 115.234C68.6649 115.761 64.5852 117.157 64.2006 118.16C64.0669 118.511 64.2926 118.825 64.6562 119.088C64.1964 119.226 64.5517 119.552 65.1286 119.377C65.2549 119.445 65.3846 119.506 65.5173 119.561C65.3041 119.607 65.8016 119.928 66.2112 119.832C66.1598 119.865 66.1181 119.911 66.0902 119.966C66.0623 120.02 66.0493 120.081 66.0524 120.142C66.0816 120.76 67.9919 121.003 68.0086 121.003C68.139 121.018 68.2702 121.025 68.4015 121.024C68.8833 121.017 69.3617 120.942 69.8227 120.802C70.0777 120.886 70.341 120.965 70.6086 121.044C70.4231 121.18 70.2497 121.331 70.0902 121.496C69.062 121.914 67.7118 122.491 66.4871 123.051H66.4286C64.5466 123.805 62.7148 124.679 60.9444 125.668C60.8116 125.727 60.7004 125.826 60.6256 125.951C60.5508 126.076 60.5162 126.22 60.5264 126.366C60.6267 127.377 63.3563 128.832 68.6314 130.692L68.715 130.721C69.6129 131.048 70.5602 131.217 71.5156 131.223C72.1135 131.22 72.7094 131.152 73.2921 131.018C74.6673 132.473 78.6718 138.542 79.8087 139.328C80.4608 139.783 83.2949 145.706 84.9376 147.341C84.7537 147.491 85.0379 147.801 85.2344 147.638C85.6273 148.056 86.4633 149.193 86.6598 149.076L86.9106 149.331C86.7726 149.397 87.0401 149.749 87.2199 149.644L88.0559 150.48C87.8051 150.982 87.4414 151.889 87.8302 152.315C88.0256 152.514 88.2615 152.668 88.5219 152.768C88.7822 152.867 89.061 152.91 89.3391 152.892C90.0096 152.868 90.6694 152.716 91.2828 152.445C92.7458 151.843 93.4146 151.019 93.2725 149.983C93.253 149.838 93.2107 149.696 93.1471 149.565C93.167 149.54 93.1811 149.512 93.1884 149.482C93.1956 149.451 93.1958 149.42 93.1889 149.389L91.6465 143.809C91.8095 143.428 88.9086 131.327 88.9086 131.327C88.9578 131.317 89.0021 131.291 89.034 131.252C90.6517 132.247 95.0156 134.855 97.9499 136.021C97.8245 136.159 97.695 136.297 97.557 136.439C97.5374 136.459 97.5219 136.482 97.5113 136.507C97.5007 136.533 97.4952 136.56 97.4952 136.588C97.4952 136.615 97.5007 136.643 97.5113 136.668C97.5219 136.694 97.5374 136.717 97.557 136.736C97.5758 136.756 97.5984 136.772 97.6236 136.783C97.6488 136.794 97.6759 136.8 97.7033 136.8C97.7307 136.8 97.7579 136.794 97.783 136.783C97.8082 136.772 97.8309 136.756 97.8496 136.736C98.0294 136.561 98.2007 136.377 98.3679 136.189C99.6316 136.552 100.946 136.707 102.26 136.648C103.86 137.125 104.968 137.405 104.993 137.409C105.097 137.421 105.203 137.421 105.307 137.409C105.563 137.454 105.824 137.475 106.084 137.472C106.814 137.452 107.541 137.372 108.258 137.234L108.45 137.204C108.893 137.146 109.34 137.119 109.788 137.125C110.555 137.127 111.321 137.081 112.083 136.987C113.813 136.765 115.615 136.243 116.15 135.913C116.409 135.771 116.4 135.595 116.371 135.503ZM98.7609 121.132L96.6709 124.426L95.6886 124.94L95.5924 124.865C95.5964 124.83 95.5964 124.795 95.5924 124.76C95.467 124.426 93.3101 121.931 91.7552 120.28H91.9767L98.7609 121.132Z" fill="#1D1919"/>
<path d="M115.786 83.483L113.19 85.6482C113.19 85.6482 112.684 86.4424 113.044 86.8771C113.321 87.2375 113.564 87.6239 113.767 88.0308C113.767 88.0308 114.185 88.8961 114.632 89.0424C115.079 89.1887 115.573 89.2597 115.861 88.754C116.15 88.2482 117.592 85.5771 117.592 85.5771L115.786 83.483Z" fill="white" stroke="#1D1919" stroke-linecap="round" stroke-linejoin="round"/>
<path d="M90.3173 144.177C90.3173 144.177 88.3402 148.469 88.2524 150.359C88.1646 152.248 88.5993 154.225 90.7604 153.021C92.9214 151.818 93.8327 148.737 94.2841 146.751C94.5476 145.744 94.663 144.703 94.6269 143.662L90.3173 144.177Z" fill="white" stroke="#1D1919" stroke-linecap="round" stroke-linejoin="round"/>
<path d="M114.277 134.387C114.277 134.387 117.454 136.189 119 137.05C120.547 137.911 121.061 139.194 120.376 139.884C119.69 140.573 117.801 141 116.254 140.481C114.708 139.963 114.022 138.68 113.161 138.508C112.3 138.337 110.498 138.166 110.235 135.846C109.972 133.526 114.277 134.387 114.277 134.387Z" fill="white" stroke="#1D1919" stroke-linecap="round" stroke-linejoin="round"/>
<path d="M91.542 85.6482C91.542 85.6482 90.5304 110.699 90.7478 114.883C90.9651 119.067 90.0957 144.482 90.0957 144.482C90.7841 145.112 91.6917 145.448 92.6246 145.418C94.2966 145.418 94.7146 144.77 94.7146 144.77L103.597 98.23C103.597 98.23 104.968 116.421 106.628 123.728C107.624 128.108 108.848 132.433 110.293 136.686C110.293 136.686 110.599 137.459 112.546 137.075C114.244 136.74 114.858 134.763 114.858 134.763C114.858 134.763 114.499 116.371 114.57 105.023C114.641 93.6738 114.281 83.0775 114.281 83.0775C114.281 83.0775 106.628 85.5855 101.143 86.2543C97.9331 86.6497 94.6772 86.4441 91.542 85.6482Z" fill="#1D1919"/>
<mask id="mask0_147_526" style="mask-type:luminance" maskUnits="userSpaceOnUse" x="90" y="83" width="25" height="63">
<path d="M91.542 85.6482C91.542 85.6482 90.5304 110.699 90.7478 114.883C90.9651 119.067 90.0957 144.482 90.0957 144.482C90.7841 145.112 91.6917 145.448 92.6246 145.418C94.2966 145.418 94.7146 144.77 94.7146 144.77L103.597 98.23C103.597 98.23 104.968 116.421 106.628 123.728C107.624 128.108 108.848 132.433 110.293 136.686C110.293 136.686 110.599 137.459 112.546 137.075C114.244 136.74 114.858 134.763 114.858 134.763C114.858 134.763 114.499 116.371 114.57 105.023C114.641 93.6738 114.281 83.0775 114.281 83.0775C114.281 83.0775 106.628 85.5855 101.143 86.2543C97.9331 86.6497 94.6772 86.4441 91.542 85.6482Z" fill="white"/>
</mask>
<g mask="url(#mask0_147_526)">
<path d="M102.042 110.252C99.9081 115.876 97.249 121.286 94.1 126.412C92.6497 128.809 91.0658 131.123 89.3557 133.342" stroke="white" stroke-linecap="round" stroke-linejoin="round"/>
<path d="M96.3489 129.162C95.4246 130.933 94.393 132.646 93.2599 134.291C92.1464 135.956 90.8308 137.476 89.3433 138.818" stroke="white" stroke-linecap="round" stroke-linejoin="round"/>
<path d="M100.023 120.526C99.2547 122.805 98.356 125.038 97.3313 127.214" stroke="white" stroke-linecap="round" stroke-linejoin="round"/>
<path d="M115.067 103.463C115.067 103.463 110.469 117.592 105.528 125.296" stroke="white" stroke-linecap="round" stroke-linejoin="round"/>
<path d="M114.883 107.865C113.571 116.3 112.091 124.811 108.392 132.527" stroke="white" stroke-linecap="round" stroke-linejoin="round"/>
<path d="M103.509 99.9773L104.429 97.7744L106.995 96.3073" stroke="white" stroke-linecap="round" stroke-linejoin="round"/>
<path d="M113.717 82.1621C113.717 82.1621 110.707 85.0588 103.183 85.8656C95.6593 86.6723 92.1899 85.8656 92.1899 85.8656C92.1899 85.8656 91.241 86.3212 91.8304 87.0193C91.8304 87.0193 91.379 87.7173 93.8075 88.2984C95.0128 88.5801 96.2387 88.7646 97.4734 88.8501L97.3982 87.5961L98.7859 87.362V88.9003C100.062 88.9247 101.339 88.8619 102.606 88.7122V87.362L103.647 87.2492L103.564 88.5868L103.982 88.5199C105.913 88.2121 107.812 87.7251 109.654 87.0652V85.0505L111.159 84.9335L111.021 86.5177C111.959 86.1376 112.827 85.602 113.587 84.9335C113.97 84.5821 114.199 84.0936 114.223 83.5745C114.247 83.0553 114.065 82.5476 113.717 82.1621Z" fill="white"/>
<path d="M95.2539 135.938C93.3961 137.715 91.4425 139.39 89.4019 140.954" stroke="white" stroke-linecap="round" stroke-linejoin="round"/>
</g>
<path d="M91.542 85.6482C91.542 85.6482 90.5304 110.699 90.7478 114.883C90.9651 119.067 90.0957 144.482 90.0957 144.482C90.7841 145.112 91.6917 145.448 92.6246 145.418C94.2966 145.418 94.7146 144.77 94.7146 144.77L103.597 98.23C103.597 98.23 104.968 116.421 106.628 123.728C107.624 128.108 108.848 132.433 110.293 136.686C110.293 136.686 110.599 137.459 112.546 137.075C114.244 136.74 114.858 134.763 114.858 134.763C114.858 134.763 114.499 116.371 114.57 105.023C114.641 93.6738 114.281 83.0775 114.281 83.0775C114.281 83.0775 106.628 85.5855 101.143 86.2543C97.9331 86.6497 94.6772 86.4441 91.542 85.6482Z" stroke="#1D1919" stroke-linecap="round" stroke-linejoin="round"/>
<path d="M112.764 52.0076C113.856 52.0491 114.928 52.3065 115.92 52.765C116.911 53.2234 117.802 53.8738 118.541 54.6786C121.049 57.4248 126.483 70.851 127.419 71.9336C128.355 73.0163 128.008 75.1272 126.687 76.239C126.269 76.6027 117.6 85.5772 117.6 85.5772L115.794 83.4872L120.923 72.8031L114.787 62.282" fill="#443FBD"/>
<path d="M112.764 52.0076C113.856 52.0491 114.928 52.3065 115.92 52.765C116.911 53.2234 117.802 53.8738 118.541 54.6786C121.049 57.4248 126.483 70.851 127.419 71.9336C128.355 73.0163 128.008 75.1272 126.687 76.239C126.269 76.6027 117.6 85.5772 117.6 85.5772L115.794 83.4872L120.923 72.8031L114.787 62.282" stroke="#1D1919" stroke-linecap="round" stroke-linejoin="round"/>
<path d="M115.519 61.3373L115.748 59.473L116.447 64.9028L115.594 63.8955L115.519 61.3373Z" fill="#1D1919" stroke="#1D1919" stroke-linecap="round" stroke-linejoin="round"/>
<path d="M123.849 74.404C122.027 74.5044 120.923 72.7864 120.923 72.7864C121.136 73.4533 121.552 74.0367 122.114 74.4544C122.676 74.8721 123.354 75.1031 124.054 75.1146" stroke="#1D1919" stroke-linecap="round" stroke-linejoin="round"/>
<path d="M115.548 61.8264C115.389 68.2594 114.62 82.1036 114.423 83.2656C114.206 84.5656 112.693 85.3556 106.699 87.1656C100.704 88.9755 92.4071 88.3192 91.8303 87.0193C91.2535 85.7193 90.0956 79.3699 90.0956 76.3352C90.0956 73.3005 87.2114 61.538 89.7361 58.867C92.2608 56.1959 99.1913 52.597 99.1913 52.597C104.751 50.4275 110.816 51.2217 113.27 52.179C113.652 52.3169 114.01 52.5144 114.331 52.7642" fill="#443FBD"/>
<path d="M115.548 61.8264C115.389 68.2594 114.62 82.1036 114.423 83.2656C114.206 84.5656 112.693 85.3556 106.699 87.1656C100.704 88.9755 92.4071 88.3192 91.8303 87.0193C91.2535 85.7193 90.0956 79.3699 90.0956 76.3352C90.0956 73.3005 87.2114 61.538 89.7361 58.867C92.2608 56.1959 99.1913 52.597 99.1913 52.597C104.751 50.4275 110.816 51.2217 113.27 52.179C113.652 52.3169 114.01 52.5144 114.331 52.7642" stroke="#1D1919" stroke-linecap="round" stroke-linejoin="round"/>
<path d="M101.432 59.8033L103.814 61.8264L102.151 82.4714L106.122 86.5887L108.793 80.5946L105.186 61.538L106.916 58.7207L104.174 56.1249L101.432 59.8033Z" fill="white" stroke="#1D1919" stroke-linecap="round" stroke-linejoin="round"/>
<path d="M108.07 76.7657L102.268 81.0502L102.151 82.4714L103.472 83.8383L108.68 79.9926L108.07 76.7657Z" fill="#1D1919"/>
<path d="M105.879 65.208L105.269 61.9811L103.706 63.1306L103.392 67.0431L105.879 65.208Z" fill="#1D1919"/>
<path d="M106.669 69.3713L102.987 72.0925L102.673 76.0049L107.28 72.6024L106.669 69.3713Z" fill="#1D1919"/>
<path d="M99.1913 51.2134C99.1913 51.2134 97.1013 53.4538 97.1013 54.1728C97.1013 54.8918 99.0492 60.3843 99.555 60.8901C100.061 61.3958 104.028 58.219 104.028 58.219C104.028 58.219 108.208 60.6727 108.504 60.309C108.801 59.9454 108.145 55.9786 107.351 53.9596C106.556 51.9407 102.297 49.1944 99.1913 51.2134Z" fill="#443FBD" stroke="#1D1919" stroke-linecap="round" stroke-linejoin="round"/>
<path d="M100.132 54.1728C100.132 54.1728 102.297 59.7322 104.462 60.0248C106.628 60.3174 107.062 55.5522 106.916 54.1728C106.77 52.7934 101.992 50.8539 100.132 54.1728Z" fill="#1D1919" stroke="#1D1919" stroke-linecap="round" stroke-linejoin="round"/>
<path d="M110.314 42.9119C110.314 42.9119 109.968 48.9938 109.274 51.5979C108.58 54.2021 107.71 56.9818 106.235 57.3329C104.759 57.684 101.637 56.2001 100.153 54.8249C98.669 53.4497 97.114 46.5736 97.114 44.5755C97.114 42.5775 102.586 40.8386 105.624 40.755C106.519 40.7339 107.406 40.9172 108.219 41.2909C109.032 41.6647 109.748 42.2191 110.314 42.9119Z" fill="white" stroke="#1D1919" stroke-linecap="round" stroke-linejoin="round"/>
<path d="M106.866 49.0021V52.3921L105.52 52.5928" stroke="#1D1919" stroke-linecap="round" stroke-linejoin="round"/>
<path d="M102.03 49.0021C102.03 49.0021 102.828 49.9008 105.123 49.2529" stroke="#1D1919" stroke-linecap="round" stroke-linejoin="round"/>
<path d="M107.167 48.952C107.167 48.952 108.111 49.2529 109.11 48.3041" stroke="#1D1919" stroke-linecap="round" stroke-linejoin="round"/>
<path d="M106.966 48.5298C106.966 48.5298 107.384 47.4221 109.19 47.071" stroke="#1D1919" stroke-linecap="round" stroke-linejoin="round"/>
<path d="M105.386 48.7639C104.949 48.3466 104.412 48.0472 103.827 47.8937C103.243 47.7402 102.628 47.7376 102.042 47.8861" stroke="#1D1919" stroke-linecap="round" stroke-linejoin="round"/>
<path d="M105.445 54.2021L106.791 53.968" stroke="#1D1919" stroke-linecap="round" stroke-linejoin="round"/>
<path d="M102.828 49.6417C103.054 49.7586 103.305 49.8197 103.559 49.8197C103.814 49.8197 104.065 49.7586 104.291 49.6417" stroke="#1D1919" stroke-linecap="round" stroke-linejoin="round"/>
<path d="M107.376 49.2362C107.623 49.2954 107.881 49.294 108.128 49.2322C108.374 49.1703 108.603 49.0498 108.793 48.8809" stroke="#1D1919" stroke-linecap="round" stroke-linejoin="round"/>
<path d="M97.5486 46.816C97.5486 46.816 99.3711 47.9446 100.241 46.9916C101.11 46.0385 100.613 45.8212 100.96 45.1273C101.306 44.4334 101.992 44.818 102.076 46.1221C102.159 47.4263 101.022 47.5099 102.41 47.6855C103.798 47.861 103.936 48.2832 107.238 46.8035C110.54 45.3238 111.965 41.173 111.965 38.9116C111.965 36.6502 107.188 33.0931 104.324 32.6416C101.461 32.1902 96.9383 33.9667 95.722 37.0933C94.5056 40.22 95.8975 44.563 95.9853 45.0855C96.0731 45.608 96.0731 46.561 97.5486 46.816Z" fill="#1D1919"/>
<mask id="mask1_147_526" style="mask-type:luminance" maskUnits="userSpaceOnUse" x="95" y="32" width="17" height="16">
<path d="M97.5486 46.816C97.5486 46.816 99.3711 47.9446 100.241 46.9916C101.11 46.0385 100.613 45.8212 100.96 45.1273C101.306 44.4334 101.992 44.818 102.076 46.1221C102.159 47.4263 101.022 47.5099 102.41 47.6855C103.798 47.861 103.936 48.2832 107.238 46.8035C110.54 45.3238 111.965 41.173 111.965 38.9116C111.965 36.6502 107.188 33.0931 104.324 32.6416C101.461 32.1902 96.9383 33.9667 95.722 37.0933C94.5056 40.22 95.8975 44.563 95.9853 45.0855C96.0731 45.608 96.0731 46.561 97.5486 46.816Z" fill="white"/>
</mask>
<g mask="url(#mask1_147_526)">
<path d="M108.124 38.4561C106.068 41.0226 102.138 43.7145 94.698 43.6225" stroke="white" stroke-width="0.5" stroke-linecap="round" stroke-linejoin="round"/>
<path d="M110.298 33.9291C110.079 35.0255 109.673 36.0761 109.098 37.0348" stroke="white" stroke-width="0.5" stroke-linecap="round" stroke-linejoin="round"/>
<path d="M107.179 32.4619C107.179 32.4619 101.49 40.546 93.6028 41.6328" stroke="white" stroke-width="0.5" stroke-linecap="round" stroke-linejoin="round"/>
</g>
<path d="M98.8278 47.7732C98.8278 47.7732 97.879 44.7511 96.3575 44.7177C94.8359 44.6842 95.7012 47.8861 96.3575 48.9813C96.5269 49.2796 96.8038 49.502 97.1316 49.603C97.4595 49.7039 97.8135 49.6759 98.1214 49.5247" fill="white"/>
<path d="M98.8278 47.7732C98.8278 47.7732 97.879 44.7511 96.3575 44.7177C94.8359 44.6842 95.7012 47.8861 96.3575 48.9813C96.5269 49.2796 96.8038 49.502 97.1316 49.603C97.4595 49.7039 97.8135 49.6759 98.1214 49.5247" stroke="#1D1919" stroke-linecap="round" stroke-linejoin="round"/>
<path d="M96.558 47.5392C96.558 47.5392 96.2069 46.0762 96.9091 46.3688C97.6114 46.6614 97.9625 47.7105 97.9625 47.7105C97.9625 47.7105 97.3773 47.652 97.4358 48.0031C97.4943 48.3543 97.904 48.3543 97.904 48.3543" stroke="#1D1919" stroke-linecap="round" stroke-linejoin="round"/>
<path d="M92.913 56.267C90.4897 57.6045 88.2359 59.2282 86.1999 61.1032C83.3826 63.8495 87.5709 80.8119 88.0767 82.9061C88.8082 85.9283 89.8825 87.3077 91.3956 87.2366C92.9088 87.1655 98.0376 78.2872 99.626 74.4583C100.698 71.6937 101.537 68.8441 102.134 65.9395C102.134 65.9395 104.157 65.1453 104.517 64.4263C104.754 63.9387 104.947 63.4309 105.093 62.909C105.093 62.909 105.457 63.9916 106.105 63.7032C106.753 63.4148 107.046 61.7553 107.188 60.5975C107.33 59.4396 104.375 58.4322 104.375 58.4322C104.375 58.4322 104.734 56.9191 105.599 56.7017C106.465 56.4843 107.476 55.6901 107.188 55.2554C106.899 54.8207 104.446 56.3422 104.446 56.3422C104.446 56.3422 102.498 59.3727 101.775 60.7438C101.302 61.6425 100.153 64.1421 99.4129 65.7598C98.9631 66.7491 98.4185 67.6927 97.7868 68.5771L94.2673 73.5178C94.2673 73.5178 94.1252 64.6395 94.1252 64.2759" fill="#443FBD"/>
<path d="M92.913 56.267C90.4897 57.6045 88.2359 59.2282 86.1999 61.1032C83.3826 63.8495 87.5709 80.8119 88.0767 82.9061C88.8082 85.9283 89.8825 87.3077 91.3956 87.2366C92.9088 87.1655 98.0376 78.2872 99.626 74.4583C100.698 71.6937 101.537 68.8441 102.134 65.9395C102.134 65.9395 104.157 65.1453 104.517 64.4263C104.754 63.9387 104.947 63.4309 105.093 62.909C105.093 62.909 105.457 63.9916 106.105 63.7032C106.753 63.4148 107.046 61.7553 107.188 60.5975C107.33 59.4396 104.375 58.4322 104.375 58.4322C104.375 58.4322 104.734 56.9191 105.599 56.7017C106.465 56.4843 107.476 55.6901 107.188 55.2554C106.899 54.8207 104.446 56.3422 104.446 56.3422C104.446 56.3422 102.498 59.3727 101.775 60.7438C101.302 61.6425 100.153 64.1421 99.4129 65.7598C98.9631 66.7491 98.4185 67.6927 97.7868 68.5771L94.2673 73.5178C94.2673 73.5178 94.1252 64.6395 94.1252 64.2759" stroke="#1D1919" stroke-linecap="round" stroke-linejoin="round"/>
<path d="M94.259 66.9971L95.5005 63.8955" stroke="#1D1919" stroke-linecap="round" stroke-linejoin="round"/>
<path d="M89.682 79.1023C89.682 78.2663 94.28 73.522 94.28 73.522C94.28 73.522 89.2138 76.7741 88.6704 77.702" stroke="#1D1919" stroke-linecap="round" stroke-linejoin="round"/>
<path d="M104.533 64.4264C104.77 63.9387 104.963 63.4309 105.11 62.909C105.11 62.909 105.474 63.9916 106.122 63.7032C106.77 63.4148 107.062 61.7553 107.204 60.5975C107.346 59.4396 104.609 58.3612 104.609 58.3612C104.609 58.3612 105.027 57.0612 105.616 56.6892C106.377 56.2168 107.493 55.6776 107.204 55.2429C107.041 54.9963 106.172 55.2429 105.457 55.5021C104.83 55.7255 104.306 56.1718 103.986 56.7561C103.359 57.8721 102.289 59.7991 101.791 60.7396C101.373 61.5756 100.353 63.7367 99.6177 65.3376C99.9354 65.8894 100.604 66.5498 101.996 66.6668C102.096 66.2029 102.151 65.9312 102.151 65.9312C102.151 65.9312 104.174 65.1453 104.533 64.4264Z" fill="white" stroke="#1D1919" stroke-linecap="round" stroke-linejoin="round"/>
<path d="M104.462 60.9611C105.202 61.2595 105.924 61.5972 106.628 61.9727C106.685 61.9998 106.737 62.0384 106.78 62.0861C106.822 62.1337 106.855 62.1896 106.875 62.2501C106.895 62.3107 106.903 62.3747 106.898 62.4384C106.893 62.5021 106.875 62.5641 106.845 62.6206" fill="white"/>
<path d="M104.462 60.9611C105.202 61.2595 105.924 61.5972 106.628 61.9727C106.685 61.9998 106.737 62.0384 106.78 62.0861C106.822 62.1337 106.855 62.1896 106.875 62.2501C106.895 62.3107 106.903 62.3747 106.898 62.4384C106.893 62.5021 106.875 62.5641 106.845 62.6206" stroke="#1D1919" stroke-linecap="round" stroke-linejoin="round"/>
<path d="M104.32 59.5901C104.32 59.5901 106.774 60.7438 107.133 61.1032L104.32 59.5901Z" fill="white"/>
<path d="M104.32 59.5901C104.32 59.5901 106.774 60.7438 107.133 61.1032" stroke="#1D1919" stroke-linecap="round" stroke-linejoin="round"/>
</svg>
