<svg width="19" height="18" viewBox="0 0 19 18" fill="none" xmlns="http://www.w3.org/2000/svg">
<path d="M9.5 0C10.6935 0 11.8381 0.474106 12.682 1.31802C13.5259 2.16193 14 3.30653 14 4.5C14 5.69347 13.5259 6.83807 12.682 7.68198C11.8381 8.52589 10.6935 9 9.5 9C8.30653 9 7.16193 8.52589 6.31802 7.68198C5.47411 6.83807 5 5.69347 5 4.5C5 3.30653 5.47411 2.16193 6.31802 1.31802C7.16193 0.474106 8.30653 0 9.5 0ZM9.5 11.25C14.4725 11.25 18.5 13.2638 18.5 15.75V18H0.5V15.75C0.5 13.2638 4.5275 11.25 9.5 11.25Z" fill="#1D1919"/>
</svg>
