<svg width="20" height="20" viewBox="0 0 20 20" fill="none" xmlns="http://www.w3.org/2000/svg">
<path d="M14.9999 9.16665C14.9999 9.93269 14.849 10.6912 14.5559 11.399C14.2627 12.1067 13.8331 12.7498 13.2914 13.2914C12.7497 13.8331 12.1066 14.2628 11.3989 14.5559C10.6912 14.8491 9.93263 15 9.16659 15C8.40054 15 7.642 14.8491 6.93427 14.5559C6.22653 14.2628 5.58347 13.8331 5.0418 13.2914C4.50012 12.7498 4.07044 12.1067 3.77729 11.399C3.48414 10.6912 3.33325 9.93269 3.33325 9.16665C3.33325 7.61955 3.94783 6.13582 5.0418 5.04186C6.13576 3.94789 7.61949 3.33331 9.16659 3.33331C10.7137 3.33331 12.1974 3.94789 13.2914 5.04186C14.3853 6.13582 14.9999 7.61955 14.9999 9.16665Z" stroke="#919191" stroke-width="1.5" stroke-linecap="round"/>
<path d="M16.6667 16.6667L15 15" stroke="#919191" stroke-width="1.5" stroke-linecap="round"/>
</svg>
