<svg width="13" height="14" viewBox="0 0 13 14" fill="none" xmlns="http://www.w3.org/2000/svg">
<path fill-rule="evenodd" clip-rule="evenodd" d="M0.25 7C0.25 3.54813 3.04813 0.75 6.5 0.75C9.95187 0.75 12.75 3.54813 12.75 7C12.75 10.4519 9.95187 13.25 6.5 13.25C3.04813 13.25 0.25 10.4519 0.25 7ZM6.5 4.5C6.5 4.33424 6.43415 4.17527 6.31694 4.05806C6.19973 3.94085 6.04076 3.875 5.875 3.875C5.70924 3.875 5.55027 3.94085 5.43306 4.05806C5.31585 4.17527 5.25 4.33424 5.25 4.5V7.625C5.25 7.79076 5.31585 7.94973 5.43306 8.06694C5.55027 8.18415 5.70924 8.25 5.875 8.25H9C9.16576 8.25 9.32473 8.18415 9.44194 8.06694C9.55915 7.94973 9.625 7.79076 9.625 7.625C9.625 7.45924 9.55915 7.30027 9.44194 7.18306C9.32473 7.06585 9.16576 7 9 7H6.5V4.5Z" fill="#919191"/>
</svg>
